<svg id="visual" viewBox="0 0 900 600" width="900" height="600" xmlns="http://www.w3.org/2000/svg" xmlns:xlink="http://www.w3.org/1999/xlink" version="1.1"><rect x="0" y="0" width="900" height="600" fill="#ffffff"></rect><g transform="translate(620.2293977069363 348.8181711148894)"><path d="M46.5 -162.4C60 -54.3 70.4 -40.3 75.5 -24.6C80.5 -8.9 80.2 8.5 103.2 63.1C126.1 117.6 172.4 209.3 159.1 288.6C145.8 368 72.9 435 -24.5 468.7C-121.9 502.4 -243.7 502.8 -258.8 424C-273.9 345.3 -182.1 187.3 -223.1 70.3C-264.1 -46.7 -437.8 -122.7 -486.7 -215.6C-535.6 -308.6 -459.7 -418.4 -357.8 -497.8C-255.9 -577.2 -127.9 -626.1 -55.7 -549.4C16.5 -472.8 33.1 -270.5 46.5 -162.4" fill="#edeeef"></path></g></svg>