<svg id="visual" viewBox="0 0 900 600" width="900" height="600" xmlns="http://www.w3.org/2000/svg" xmlns:xlink="http://www.w3.org/1999/xlink" version="1.1"><g transform="translate(0 0)"><path d="M107.5 -186.2C140 -167.4 167.4 -140 186.2 -107.5C204.9 -75 215 -37.5 215 0C215 37.5 204.9 75 186.2 107.5C167.4 140 140 167.4 107.5 186.2C75 204.9 37.5 215 0 215C-37.5 215 -75 204.9 -107.5 186.2C-140 167.4 -167.4 140 -186.2 107.5C-204.9 75 -215 37.5 -215 0C-215 -37.5 -204.9 -75 -186.2 -107.5C-167.4 -140 -140 -167.4 -107.5 -186.2C-75 -204.9 -37.5 -215 0 -215C37.5 -215 75 -204.9 107.5 -186.2" fill="none" stroke="#0DCAF0" stroke-width="60"></path></g></svg>