<?xml version="1.0" encoding="UTF-8" standalone="no"?>
<!DOCTYPE svg PUBLIC "-//W3C//DTD SVG 1.1//EN" "http://www.w3.org/Graphics/SVG/1.1/DTD/svg11.dtd">
<svg width="100%" height="100%" viewBox="0 0 1455 1237" version="1.1" xmlns="http://www.w3.org/2000/svg" xmlns:xlink="http://www.w3.org/1999/xlink" xml:space="preserve" xmlns:serif="http://www.serif.com/" style="fill-rule:evenodd;clip-rule:evenodd;stroke-linejoin:round;stroke-miterlimit:2;">
    <g transform="matrix(4.16667,0,0,4.16667,-939.507,-631.969)">
        <g transform="matrix(1.60048,0,0,1.60048,-172.292,-931.625)">
            <path d="M456.985,756.67C457.442,757.445 457.669,758.545 457.847,759.73C457.962,760.197 458.015,760.631 458.218,761.07C457.862,760.636 457.573,760.06 457.329,759.44C456.989,758.622 456.884,757.519 456.192,756.542C456.007,756.244 455.767,755.973 455.481,755.738C456.007,755.759 456.628,756.001 456.985,756.67ZM453.186,759.648C454.604,761.122 456.433,762.933 457.392,764.912C455.638,763.843 453.823,763.177 452.19,762.311C451.581,762.026 450.985,761.732 450.53,761.349C450.038,760.777 449.718,760.144 449.665,759.464C449.597,758.716 449.745,758.03 449.952,757.425C450.089,757.147 450.259,756.894 450.462,756.666C451.061,757.836 452.161,758.585 453.186,759.648ZM449.241,779.113L449.245,779.115L449.241,779.115L449.241,779.113ZM458.614,769.695C458.782,769.195 458.901,768.682 458.97,768.16C459.243,768.603 459.435,769.092 459.499,769.629C459.69,771.105 458.751,772.456 457.495,773.027C457.089,773.185 456.667,773.285 456.253,773.331L456.124,773.349L456.093,773.352C455.308,773.407 454.513,773.311 453.749,773.142C454.417,773.127 455.085,773.011 455.69,772.708C457.163,771.973 458.073,771.309 458.614,769.695ZM436.935,732.988C436.491,732.975 436.118,732.525 435.661,732.252C435.87,732.248 436.075,732.252 436.267,732.273C436.452,732.51 436.817,732.741 437.259,732.959C437.155,732.978 437.048,732.992 436.935,732.988ZM432.993,733.811C432.966,733.411 433.046,732.992 433.069,732.573C433.438,732.521 433.8,732.463 434.149,732.412C433.727,732.829 433.567,733.495 432.993,733.811ZM432.05,731.949L431.89,731.959L432.04,731.934L432.05,731.949ZM436.151,730.308C436.458,730.494 436.78,730.737 437.075,731.083C437.161,731.18 437.243,731.281 437.325,731.379L437.075,731.265C436.415,730.992 435.612,730.94 434.77,730.961C434.069,730.982 433.329,731.064 432.563,731.164C433.251,730.426 434.866,730.191 436.151,730.308ZM432.436,731.862C432.825,731.796 433.202,731.729 433.567,731.668C433.161,731.751 432.784,731.831 432.438,731.9L432.436,731.862ZM420.257,743.421L420.257,743.432L420.231,743.449L420.257,743.421ZM445.968,719.403L445.94,719.423L445.987,719.277L445.968,719.403ZM464.122,753.507C462.798,752.618 462.013,751.065 460.269,750.861C459.038,750.717 457.784,751.541 456.671,751.115C455.397,750.625 454.489,749.998 453.017,750.363C451.003,750.86 449.882,753.023 450.009,754.985C450.028,755.311 450.081,755.605 450.151,755.879L450.14,755.892C449.204,756.147 448.601,757.64 448.474,759.103C448.327,760.549 449.145,762.169 450.561,763.143C450.997,763.51 451.501,763.815 452.04,764.024C453.249,764.528 454.399,764.906 455.435,765.224C455.681,765.368 455.927,765.512 456.175,765.664C456.8,766.05 457.458,766.5 458.02,767.025C458.124,768.101 457.87,769.206 457.087,770.316C455.798,772.136 453.487,772.405 451.522,771.616C449.171,770.673 448.604,768.915 447.487,766.889C444.983,762.361 434.718,760.681 437.595,753.874C438.673,751.313 440.995,751.308 442.874,749.857C441.698,750.765 441.886,752.716 443.147,753.415C442.151,750.815 445.96,750.541 447.397,749.646C448.872,748.727 450.915,745.644 449.901,743.956C450.692,744.431 451.097,744.448 451.901,744.13L451.966,744.101C452.087,744.108 452.206,744.094 452.321,744.049C453.522,743.557 453.81,742.576 454.017,742.006L454.05,741.905L453.895,742.12C454.054,741.828 454.12,741.542 454.118,741.321L454.126,741.259C453.935,741.561 453.622,741.936 453.165,742.25C452.727,742.554 452.102,742.799 451.647,742.517C451.561,742.316 451.511,742.122 451.497,741.929C451.558,741.676 451.647,741.421 451.755,741.195C452.296,740.191 453.265,739.472 453.872,738.561C453.903,738.671 453.964,738.774 454.056,738.87C454.101,739.274 454.183,739.663 454.329,740.028C454.53,740.581 455.069,741.036 455.575,741.025C456.067,741.04 456.433,740.863 456.708,740.708L456.808,740.661C456.247,740.802 455.12,740.939 454.864,739.923C454.571,738.982 454.735,737.721 454.806,736.344C454.837,734.953 454.497,733.503 453.563,732.701C453.419,732.578 453.274,732.472 453.128,732.381C453.708,732.501 454.392,732.411 455.026,732.118C455.716,731.805 456.308,731.233 456.444,730.546C456.565,729.828 456.122,729.371 455.845,729.208L455.802,729.171C455.936,729.478 456.108,729.939 455.935,730.363C455.454,730.604 454.763,730.599 454.009,730.124C453.821,730.019 453.647,729.908 453.483,729.79L453.479,729.698C453.386,729.038 453.938,729.198 453.987,728.713C453.845,728.006 453.278,727.639 453.009,727.032C453.216,726.518 453.749,726.088 453.575,725.53C453.343,725.325 452.854,725.321 452.575,725.151C452.714,724.769 452.499,724.666 452.536,724.362C452.091,724.248 451.722,724.072 451.134,724.068C450.97,722.924 450.403,722.41 450.548,721.255C449.163,720.847 448.923,721.887 448.114,722.206C447.86,721.765 447.546,721.328 447.239,720.889C446.765,720.221 446.435,719.597 446.649,719.102C446.833,718.673 447.212,718.345 447.501,718.092L447.634,718.053L447.696,718.041L447.593,718.009L447.657,717.952L447.714,717.911C447.634,717.931 447.54,717.951 447.44,717.978C446.63,717.881 445.142,718.493 444.53,720.065C444.239,720.868 444.296,721.64 444.501,722.307L444.433,722.339C444.495,722.31 442.671,720.065 441.245,721.021C440.587,721.464 440.868,722.039 440.505,722.503C441.638,721.055 443.321,723.034 441.03,723.623C439.556,724.001 438.085,723.51 436.688,724.227C435.493,724.837 434.813,726.146 433.325,726.061C433.208,726.055 433.079,726.03 432.94,725.997C433.087,725.472 433.216,724.848 433.269,724.19C433.438,722.584 433.302,720.877 433.269,720.159L433.212,719.21L433.233,719.744C433.27,720.816 433.286,722.311 433.128,723.752C433.05,724.529 432.905,725.281 432.749,725.951C432.548,725.9 432.335,725.837 432.12,725.782C432.104,725.104 432.013,724.275 431.796,723.439C431.376,721.656 430.567,719.888 430.243,719.136L429.806,718.148L430.044,718.71C430.519,719.83 431.116,721.418 431.503,723.021C431.741,723.961 431.872,724.903 431.935,725.737L431.753,725.704C431.56,725.013 431.251,724.264 430.788,723.561C429.626,721.579 427.921,719.83 427.22,719.088L426.276,718.122L426.804,718.671C427.852,719.773 429.243,721.387 430.321,723.144C430.843,723.967 431.261,724.841 431.53,725.674C431.026,725.627 430.591,725.748 430.394,726.328C430.186,726.943 430.362,728.871 430.743,729.41C430.987,729.76 431.509,729.764 431.776,729.985C431.739,730.179 431.708,730.39 431.694,730.62C431.683,730.849 431.708,731.07 431.759,731.273C430.917,731.385 430.097,731.426 429.306,731.115C427.536,730.441 426.442,728.75 425.993,727.281C425.52,725.773 425.712,724.383 426.102,723.506L426.175,723.355C425.579,724.075 425.065,725.549 425.435,727.271C425.569,727.944 425.835,728.683 426.249,729.375C426.491,730.032 426.995,730.894 427.936,731.578C429.001,732.373 430.595,732.818 432.241,732.677L432.491,732.647C432.243,732.982 431.942,733.268 431.542,733.358C431.095,733.458 429.923,732.416 429.829,733.585C429.786,734.08 430.675,733.954 430.735,734.366C430.802,734.828 430.425,734.909 430.399,735.214C430.347,735.883 429.917,736.364 430.495,736.902C430.886,737.269 431.999,737.208 432.388,736.897C432.61,737.227 432.686,737.674 433.345,737.661C433.964,737.806 433.915,737.102 434.45,737.138C434.964,738.405 436.483,737.475 436.731,736.621C437.036,737.402 436.13,737.797 435.876,738.35C434.856,738.936 434.11,738.081 433.026,738.148C432.753,738.164 432.595,738.501 432.319,738.587C431.729,738.771 431.173,738.825 430.642,738.86C429.868,737.801 428.907,736.967 427.831,736.628C426.52,736.065 426.665,734.105 425.446,732.936C423.739,730.57 423.161,728.055 422.517,726.607C422.636,726.851 422.718,727.078 422.788,727.256L422.813,727.317C422.589,726.652 422.106,725.063 420.405,724.474C419.231,724.068 418.493,723.271 417.909,722.73L418.087,722.872C417.765,722.579 417.12,721.792 416.052,721.994C415.599,721.749 414.597,721.555 413.595,722.023C413.054,722.273 412.685,722.661 412.454,723.051C412.243,723.216 412.077,723.579 412.085,724.027C412.325,724.468 412.37,724.986 412.554,725.566C412.604,725.693 412.675,725.852 412.685,725.938L412.69,725.938C412.87,725.884 412.821,725.7 412.874,725.586C412.931,725.325 412.96,725.077 412.999,724.848C413.063,724.485 413.208,724.186 413.392,724.015C413.36,724.146 413.347,724.36 413.466,724.568C413.604,724.752 413.784,724.837 413.911,724.868C413.913,725.079 413.927,725.294 413.96,725.514C413.935,725.893 414.466,726.849 414.679,726.588L414.694,726.563L414.755,726.394C414.794,726.021 414.929,725.586 415.056,725.429L415.136,725.411L415.144,725.418L415.14,725.407C415.267,725.378 415.427,725.337 415.599,725.28C415.823,725.215 416.024,725.149 416.151,725.097C416.028,725.234 415.913,725.407 415.823,725.602C415.561,726.117 415.515,726.63 415.561,727.078C415.528,727.172 415.499,727.266 415.477,727.368C415.315,728.011 415.708,728.727 416.114,728.703L416.136,728.716C416.054,728.362 416.106,728.013 416.206,727.509L416.224,727.411C416.374,727.288 416.538,727.214 416.669,727.161L416.677,727.185C416.78,727.229 417.005,727.277 417.257,727.188C417.354,727.136 417.436,727.073 417.501,727.011C417.583,727.287 417.739,727.831 418.235,728.269C418.386,728.373 418.532,728.451 418.681,728.506C418.983,729.325 419.183,730.692 419.386,732.321L419.272,732.523C419.061,732.852 418.685,733.118 418.372,733.535C418.046,733.983 417.995,734.483 417.97,734.87C417.935,735.69 418.14,736.368 418.413,736.753L418.45,736.82C418.386,736.432 418.362,735.901 418.448,735.29L418.479,735.353L418.487,735.387C418.597,735.211 418.716,735.01 418.851,734.779C418.864,735.08 418.968,735.354 419.104,735.535C419.089,735.727 419.081,735.921 419.089,736.117C419.108,736.95 418.856,737.656 418.665,738.227C418.31,738.732 417.976,739.274 417.907,739.865C417.827,740.577 418.153,741.085 418.401,741.341L418.438,741.393C418.376,741.037 418.261,740.53 418.423,740.021C418.472,739.865 418.546,739.708 418.638,739.551L418.642,739.555L418.649,739.586C418.769,739.292 419.001,739.103 419.356,738.863C419.188,739.1 419.04,739.435 419.065,739.74C419.065,740.381 419.183,740.862 419.308,741.232C419.345,741.561 419.435,741.833 419.526,742.006L419.536,742.043C419.767,741.621 419.858,740.898 420.179,740.141L420.333,740.066C420.474,740.61 420.618,741.077 420.741,741.45C420.64,741.707 420.517,741.957 420.366,742.188C419.872,742.803 419.229,743.406 419.079,744.23C418.964,745.123 419.638,745.566 419.962,745.72L420.019,745.76C419.802,745.438 419.423,744.923 419.597,744.396L419.597,744.391C419.979,744.291 420.477,744.144 421.022,743.826L421.188,743.723C421.419,743.717 421.61,743.784 421.727,743.798L421.765,743.815C421.507,743.945 421.132,744.478 421.2,745.153C421.245,745.763 421.536,746.236 421.757,746.449L421.788,746.552L421.774,746.474L421.811,746.505L421.774,746.464C421.77,746.282 421.843,746.012 421.979,745.727C422.118,745.442 422.323,745.116 422.485,745.2L422.481,745.207C422.304,745.445 422.069,746.053 422.265,746.729L422.3,746.828C422.169,747.07 422.048,747.318 421.929,747.569C420.743,747.336 419.692,747.155 418.901,747.088L419.013,747.06L418.882,747.066L418.825,747.084C418.577,747.061 418.356,747.051 418.165,747.059C418.331,747.061 418.52,747.073 418.731,747.101L418.604,747.119L418.587,747.119C417.874,747.138 416.829,746.985 416.165,747.952C415.536,749.087 414.237,750.157 412.563,750.11C411.794,750.124 410.946,749.67 410.27,750.147C409.681,750.652 409.399,751.306 409.036,751.846C408.825,752.105 408.702,752.371 408.63,752.634C408.515,752.715 408.407,752.821 408.321,752.96L408.229,753.171C408.116,753.267 408.013,753.39 407.933,753.542C407.62,754.097 407.909,754.759 408.226,754.817L408.243,754.83C408.319,754.493 408.413,754.226 408.587,753.885L408.606,753.849C408.657,754.173 408.731,754.465 408.753,754.708L408.755,754.78L408.698,754.9L408.724,754.725C408.645,755.163 408.181,756.247 408.899,757.208C409.032,757.367 409.177,757.499 409.327,757.609C409.446,757.868 409.628,758.119 409.882,758.322C410.657,759.026 411.778,758.976 412.091,758.574L412.124,758.554L411.993,758.538C411.722,758.283 411.345,757.978 411.097,757.549C411.042,757.46 411.003,757.368 410.968,757.276C411.606,757.061 412.286,756.788 412.304,756.394C412.474,756.339 412.669,756.226 412.798,756.003C413.038,755.401 412.989,755.86 413.151,756.046L413.108,755.835C413.179,755.955 413.575,756.477 414.124,756.725C414.147,756.891 414.19,757.069 414.267,757.253C414.696,758.138 415.649,758.143 415.95,757.964L415.979,757.96L415.772,757.801C415.614,757.534 415.431,757.29 415.392,756.966C415.364,756.82 415.343,756.664 415.315,756.51C415.425,756.351 415.485,756.161 415.519,755.996C415.737,755.78 416.024,755.504 416.173,755.065C416.161,754.787 416.192,754.493 416.247,754.263L416.251,754.264L416.251,754.255C416.315,753.956 416.413,753.759 416.503,753.801C416.425,753.744 416.333,753.841 416.261,754.025C416.321,753.797 416.517,753.585 416.854,753.966C417.358,753.752 417.106,753.204 417.304,753.102C417.435,753.116 417.62,753.191 417.862,753.199C417.659,753.808 417.645,754.462 417.595,755.331C417.655,754.307 418.358,754.007 419.089,753.434C418.417,753.912 418.401,754.656 418.608,755.418L418.577,755.518C418.399,756.166 418.394,756.888 418.696,757.425C419.001,757.975 419.522,758.132 419.823,758.142L419.876,758.156L419.765,758.074C419.874,758.127 419.981,758.157 420.071,758.165L420.132,758.186C419.854,757.942 419.515,757.563 419.528,757.019C419.52,756.643 419.63,756.199 419.79,755.725C419.911,755.579 420.05,755.44 420.19,755.32C420.183,755.861 420.517,756.295 420.558,756.838C420.601,757.42 420.347,758.064 420.257,758.63C420.054,759.903 420.96,760.349 421.415,761.439C421.159,760.626 421.427,759.242 422.374,758.974C422.528,760.163 422.929,761.043 423.544,762.052C423.313,761.521 423.802,760.912 423.952,760.53C423.858,761.119 424.048,761.733 424.198,762.304C424.44,762.143 424.513,761.852 424.88,761.732C425.136,762.298 425.282,762.932 425.591,763.455C425.88,763.941 426.376,764.245 426.724,764.671C425.72,764.857 424.784,764.969 424.124,765.811C423.243,766.936 422.974,768.526 422.821,769.905C422.694,771.058 422.661,772.229 422.411,773.366C422.237,774.16 421.575,776.136 420.593,776.276C419.401,776.444 418.886,775.95 418.616,775.218C418.741,774.603 418.796,773.886 418.702,773.1C418.645,772.683 418.513,772.188 418.19,771.827C417.872,771.443 417.386,771.315 417.022,771.307C416.446,771.31 416.013,771.461 415.685,771.609C414.852,771.555 414.05,771.691 413.38,772.08L413.144,771.96C412.526,771.632 411.589,771.849 411.319,772.394C411.198,772.603 411.112,772.779 411.04,772.938L410.897,773.126C410.843,773.218 410.81,773.308 410.79,773.393L410.772,773.415L410.784,773.414C410.708,773.784 410.899,774.085 411.042,774.201L411.065,774.233C410.993,773.774 411.274,773.313 411.819,773.275C412.218,773.809 413.038,774.004 412.96,774.914C412.534,775.069 412.034,775.394 411.831,775.894C411.497,776.483 411.423,777.207 411.657,777.734C411.886,778.269 412.321,778.502 412.602,778.58L412.645,778.602C412.468,778.388 412.298,778.088 412.216,777.734C412.259,777.538 412.411,777.376 412.739,777.251C412.923,777.166 413.106,777.114 413.286,777.081C413.362,777.702 413.388,778.58 413.729,779.178C413.61,779.351 413.52,779.553 413.485,779.786C413.372,780.246 413.45,780.768 413.747,781.102C414.06,781.444 414.464,781.418 414.647,781.329L414.681,781.322C414.386,781.17 414.194,780.926 414.153,780.57L414.155,780.566C414.224,780.409 414.474,780.219 414.845,780.041C415.034,779.948 415.226,779.861 415.409,779.774C416.534,779.969 417.888,780.393 418.769,779.589C418.827,779.737 418.923,779.841 419.036,779.909C418.774,779.99 418.542,780.071 418.372,780.167L418.343,780.175C418.622,780.423 419.265,780.614 420.015,780.389C420.257,780.316 420.515,780.163 420.683,779.948C420.669,780.075 420.655,780.203 420.64,780.331C420.774,780.323 420.882,780.337 420.977,780.36L420.966,780.383C420.431,780.511 419.948,780.597 419.63,780.705L419.587,780.712C420.019,780.972 420.976,781.201 422.075,780.833C422.606,780.648 423.13,780.186 423.192,779.644L423.202,779.496C423.561,779.668 423.897,779.857 424.216,780.063C424.167,780.399 424.12,780.715 424.104,780.984C423.946,781.107 423.786,781.179 423.62,781.183L423.583,781.182C423.696,781.383 424.136,781.493 424.524,781.311C424.913,781.148 425.263,780.816 425.52,780.401L425.63,780.215C426.075,779.969 426.519,779.649 426.649,779.205C426.819,778.64 426.378,778.152 426.444,777.614C426.7,775.609 428.86,775.147 429.694,773.292C429.813,773.399 429.933,773.501 430.058,773.597C430.036,773.718 430.022,773.84 430.02,773.964C429.997,774.427 430.114,774.871 430.3,775.186C430.319,775.695 430.532,776.136 430.792,776.265L430.813,776.285C430.854,775.873 430.913,775.384 431.089,774.734C431.128,774.59 431.167,774.445 431.202,774.304C433.183,775.232 435.503,774.93 437.075,773.151C434.481,776.899 440.177,779.894 442.163,782.282C443.14,783.457 445.839,785.469 445.894,787.056C445.974,789.489 444.132,787.689 442.935,787.598C441.839,787.515 441.101,788.232 441.056,789.034C440.839,789.146 440.626,789.31 440.448,789.528C440.167,789.853 440.007,790.333 440.132,790.736C440.263,791.146 440.593,791.283 440.784,791.294L440.815,791.306C440.671,791.038 440.618,790.773 440.714,790.49C440.991,790.448 441.272,790.385 441.573,790.265L441.602,790.254C441.696,790.337 441.798,790.414 441.915,790.488C441.778,790.561 441.683,790.641 441.618,790.733C441.399,790.86 441.224,791.079 441.14,791.31C440.845,791.977 441.263,792.752 441.671,792.708L441.694,792.714C441.645,792.554 441.642,792.387 441.663,792.212C441.847,792.142 442.026,792.127 442.272,792.013C442.407,791.957 442.536,791.884 442.653,791.803C442.956,791.838 443.261,791.858 443.554,791.899C443.39,792.09 443.255,792.331 443.181,792.636C443.077,793.123 443.261,793.639 443.554,793.893C443.843,794.156 444.153,794.207 444.36,794.201L444.394,794.208C444.14,793.852 443.755,793.363 443.905,792.787L443.921,792.724C443.966,792.846 444.04,792.939 444.132,792.987L444.14,793L444.192,792.949C444.954,793.723 446.433,793.63 447.364,793.435C447.868,793.331 449.241,793.229 449.544,792.936C449.7,792.786 450.114,790.857 449.997,790.691C450.235,791.024 450.477,791.038 450.77,790.968L450.831,791.154C450.952,791.591 451.173,792.013 451.417,792.257C451.413,792.505 451.425,792.721 451.462,792.894L451.462,792.939C451.749,792.489 452.243,791.61 452.216,790.355C452.188,789.74 451.938,789.158 451.604,788.796C451.511,788.695 451.417,788.608 451.321,788.533C451.261,788.326 451.226,788.103 451.245,787.834C452.194,787.335 451.462,786.813 451.278,786.204C451.069,785.512 451.458,785.009 451.39,784.309C451.28,783.172 450.362,783.757 449.577,783.403C447.938,782.663 448.36,780.781 447.563,779.533C447.679,779.586 447.79,779.632 447.913,779.667C449.122,779.997 450.144,779.55 450.602,779.146C450.825,779.068 450.999,778.952 451.114,778.834L451.167,778.801C450.446,779.017 449.261,778.723 448.337,777.602C448.243,777.495 448.153,777.385 448.067,777.273C447.948,776.926 447.901,776.529 447.931,776.076C448.325,776.563 448.964,776.724 449.581,776.631C449.753,776.678 449.927,776.706 450.097,776.707C450.759,776.722 451.22,776.389 451.438,776.132L451.483,776.095C451.167,776.215 450.735,776.269 450.276,776.181C449.513,775.75 448.767,775.551 448.546,774.552L448.515,774.374C448.681,774.488 448.856,774.563 449.009,774.596C449.265,774.67 449.495,774.686 449.692,774.674C450.196,774.87 450.694,774.852 450.942,774.736L450.987,774.73C450.503,774.488 449.655,774.168 449.226,773.327C449.044,772.979 448.923,772.615 448.835,772.269L448.923,772.014C449.352,772.057 449.782,772.248 450.214,772.438C450.626,772.65 451.061,772.85 451.52,773.033C453.005,773.62 454.716,774.205 456.677,773.977C457.374,773.901 458.065,773.601 458.651,773.146C459.503,772.646 460.233,771.891 460.628,770.847C461.013,769.779 460.819,768.533 460.229,767.557C459.899,766.994 459.477,766.517 459.003,766.093C458.956,765.609 458.87,765.13 458.739,764.663C458.31,763.084 456.515,761.739 455.364,760.589C454.46,759.685 453.538,758.661 452.698,757.704C452.251,757.194 451.888,756.517 451.657,755.791L451.665,755.788C452.071,755.636 452.519,755.563 452.999,755.595L453.101,755.598C453.513,755.632 453.903,755.715 454.267,755.839C454.794,756.054 455.249,756.406 455.579,756.864C456.2,757.636 456.374,758.597 456.769,759.49C457.155,760.357 457.644,761.119 458.284,761.613C458.567,761.841 458.886,761.954 459.19,761.979C459.536,762.084 459.894,762.07 460.19,762.031C461.325,761.869 461.841,760.833 461.71,760.273L461.712,760.175C461.63,760.733 461.091,761.433 460.206,761.485C459.792,761.517 459.272,761.411 459.036,761.119C458.806,760.817 458.702,760.166 458.577,759.618C458.39,758.401 458.085,757.21 457.423,756.361C456.843,755.548 455.899,755.459 455.37,755.651C454.716,755.148 453.864,754.843 453.015,754.855C452.487,754.82 451.966,754.906 451.479,755.084C451.153,753.345 451.665,751.55 453.694,751.221C456.821,750.714 456.253,754.785 458.45,755.962C459.811,756.694 461.071,756.479 462.452,756.013C463.142,755.777 466.069,755.132 465.39,756.846C464.888,757.016 464.237,757.183 463.87,756.654C464.532,757.607 466.173,757.371 466.542,756.25C467.028,754.766 465.011,754.103 464.122,753.507Z" style="fill:rgb(10,12,18);fill-rule:nonzero;"/>
        </g>
        <g transform="matrix(-1.60048,0,0,1.60048,972.292,-931.625)">
            <path d="M456.985,756.67C457.442,757.445 457.669,758.545 457.847,759.73C457.962,760.197 458.015,760.631 458.218,761.07C457.862,760.636 457.573,760.06 457.329,759.44C456.989,758.622 456.884,757.519 456.192,756.542C456.007,756.244 455.767,755.973 455.481,755.738C456.007,755.759 456.628,756.001 456.985,756.67ZM453.186,759.648C454.604,761.122 456.433,762.933 457.392,764.912C455.638,763.843 453.823,763.177 452.19,762.311C451.581,762.026 450.985,761.732 450.53,761.349C450.038,760.777 449.718,760.144 449.665,759.464C449.597,758.716 449.745,758.03 449.952,757.425C450.089,757.147 450.259,756.894 450.462,756.666C451.061,757.836 452.161,758.585 453.186,759.648ZM449.241,779.113L449.245,779.115L449.241,779.115L449.241,779.113ZM458.614,769.695C458.782,769.195 458.901,768.682 458.97,768.16C459.243,768.603 459.435,769.092 459.499,769.629C459.69,771.105 458.751,772.456 457.495,773.027C457.089,773.185 456.667,773.285 456.253,773.331L456.124,773.349L456.093,773.352C455.308,773.407 454.513,773.311 453.749,773.142C454.417,773.127 455.085,773.011 455.69,772.708C457.163,771.973 458.073,771.309 458.614,769.695ZM436.935,732.988C436.491,732.975 436.118,732.525 435.661,732.252C435.87,732.248 436.075,732.252 436.267,732.273C436.452,732.51 436.817,732.741 437.259,732.959C437.155,732.978 437.048,732.992 436.935,732.988ZM432.993,733.811C432.966,733.411 433.046,732.992 433.069,732.573C433.438,732.521 433.8,732.463 434.149,732.412C433.727,732.829 433.567,733.495 432.993,733.811ZM432.05,731.949L431.89,731.959L432.04,731.934L432.05,731.949ZM436.151,730.308C436.458,730.494 436.78,730.737 437.075,731.083C437.161,731.18 437.243,731.281 437.325,731.379L437.075,731.265C436.415,730.992 435.612,730.94 434.77,730.961C434.069,730.982 433.329,731.064 432.563,731.164C433.251,730.426 434.866,730.191 436.151,730.308ZM432.436,731.862C432.825,731.796 433.202,731.729 433.567,731.668C433.161,731.751 432.784,731.831 432.438,731.9L432.436,731.862ZM420.257,743.421L420.257,743.432L420.231,743.449L420.257,743.421ZM445.968,719.403L445.94,719.423L445.987,719.277L445.968,719.403ZM464.122,753.507C462.798,752.618 462.013,751.065 460.269,750.861C459.038,750.717 457.784,751.541 456.671,751.115C455.397,750.625 454.489,749.998 453.017,750.363C451.003,750.86 449.882,753.023 450.009,754.985C450.028,755.311 450.081,755.605 450.151,755.879L450.14,755.892C449.204,756.147 448.601,757.64 448.474,759.103C448.327,760.549 449.145,762.169 450.561,763.143C450.997,763.51 451.501,763.815 452.04,764.024C453.249,764.528 454.399,764.906 455.435,765.224C455.681,765.368 455.927,765.512 456.175,765.664C456.8,766.05 457.458,766.5 458.02,767.025C458.124,768.101 457.87,769.206 457.087,770.316C455.798,772.136 453.487,772.405 451.522,771.616C449.171,770.673 448.604,768.915 447.487,766.889C444.983,762.361 434.718,760.681 437.595,753.874C438.673,751.313 440.995,751.308 442.874,749.857C441.698,750.765 441.886,752.716 443.147,753.415C442.151,750.815 445.96,750.541 447.397,749.646C448.872,748.727 450.915,745.644 449.901,743.956C450.692,744.431 451.097,744.448 451.901,744.13L451.966,744.101C452.087,744.108 452.206,744.094 452.321,744.049C453.522,743.557 453.81,742.576 454.017,742.006L454.05,741.905L453.895,742.12C454.054,741.828 454.12,741.542 454.118,741.321L454.126,741.259C453.935,741.561 453.622,741.936 453.165,742.25C452.727,742.554 452.102,742.799 451.647,742.517C451.561,742.316 451.511,742.122 451.497,741.929C451.558,741.676 451.647,741.421 451.755,741.195C452.296,740.191 453.265,739.472 453.872,738.561C453.903,738.671 453.964,738.774 454.056,738.87C454.101,739.274 454.183,739.663 454.329,740.028C454.53,740.581 455.069,741.036 455.575,741.025C456.067,741.04 456.433,740.863 456.708,740.708L456.808,740.661C456.247,740.802 455.12,740.939 454.864,739.923C454.571,738.982 454.735,737.721 454.806,736.344C454.837,734.953 454.497,733.503 453.563,732.701C453.419,732.578 453.274,732.472 453.128,732.381C453.708,732.501 454.392,732.411 455.026,732.118C455.716,731.805 456.308,731.233 456.444,730.546C456.565,729.828 456.122,729.371 455.845,729.208L455.802,729.171C455.936,729.478 456.108,729.939 455.935,730.363C455.454,730.604 454.763,730.599 454.009,730.124C453.821,730.019 453.647,729.908 453.483,729.79L453.479,729.698C453.386,729.038 453.938,729.198 453.987,728.713C453.845,728.006 453.278,727.639 453.009,727.032C453.216,726.518 453.749,726.088 453.575,725.53C453.343,725.325 452.854,725.321 452.575,725.151C452.714,724.769 452.499,724.666 452.536,724.362C452.091,724.248 451.722,724.072 451.134,724.068C450.97,722.924 450.403,722.41 450.548,721.255C449.163,720.847 448.923,721.887 448.114,722.206C447.86,721.765 447.546,721.328 447.239,720.889C446.765,720.221 446.435,719.597 446.649,719.102C446.833,718.673 447.212,718.345 447.501,718.092L447.634,718.053L447.696,718.041L447.593,718.009L447.657,717.952L447.714,717.911C447.634,717.931 447.54,717.951 447.44,717.978C446.63,717.881 445.142,718.493 444.53,720.065C444.239,720.868 444.296,721.64 444.501,722.307L444.433,722.339C444.495,722.31 442.671,720.065 441.245,721.021C440.587,721.464 440.868,722.039 440.505,722.503C441.638,721.055 443.321,723.034 441.03,723.623C439.556,724.001 438.085,723.51 436.688,724.227C435.493,724.837 434.813,726.146 433.325,726.061C433.208,726.055 433.079,726.03 432.94,725.997C433.087,725.472 433.216,724.848 433.269,724.19C433.438,722.584 433.302,720.877 433.269,720.159L433.212,719.21L433.233,719.744C433.27,720.816 433.286,722.311 433.128,723.752C433.05,724.529 432.905,725.281 432.749,725.951C432.548,725.9 432.335,725.837 432.12,725.782C432.104,725.104 432.013,724.275 431.796,723.439C431.376,721.656 430.567,719.888 430.243,719.136L429.806,718.148L430.044,718.71C430.519,719.83 431.116,721.418 431.503,723.021C431.741,723.961 431.872,724.903 431.935,725.737L431.753,725.704C431.56,725.013 431.251,724.264 430.788,723.561C429.626,721.579 427.921,719.83 427.22,719.088L426.276,718.122L426.804,718.671C427.852,719.773 429.243,721.387 430.321,723.144C430.843,723.967 431.261,724.841 431.53,725.674C431.026,725.627 430.591,725.748 430.394,726.328C430.186,726.943 430.362,728.871 430.743,729.41C430.987,729.76 431.509,729.764 431.776,729.985C431.739,730.179 431.708,730.39 431.694,730.62C431.683,730.849 431.708,731.07 431.759,731.273C430.917,731.385 430.097,731.426 429.306,731.115C427.536,730.441 426.442,728.75 425.993,727.281C425.52,725.773 425.712,724.383 426.102,723.506L426.175,723.355C425.579,724.075 425.065,725.549 425.435,727.271C425.569,727.944 425.835,728.683 426.249,729.375C426.491,730.032 426.995,730.894 427.936,731.578C429.001,732.373 430.595,732.818 432.241,732.677L432.491,732.647C432.243,732.982 431.942,733.268 431.542,733.358C431.095,733.458 429.923,732.416 429.829,733.585C429.786,734.08 430.675,733.954 430.735,734.366C430.802,734.828 430.425,734.909 430.399,735.214C430.347,735.883 429.917,736.364 430.495,736.902C430.886,737.269 431.999,737.208 432.388,736.897C432.61,737.227 432.686,737.674 433.345,737.661C433.964,737.806 433.915,737.102 434.45,737.138C434.964,738.405 436.483,737.475 436.731,736.621C437.036,737.402 436.13,737.797 435.876,738.35C434.856,738.936 434.11,738.081 433.026,738.148C432.753,738.164 432.595,738.501 432.319,738.587C431.729,738.771 431.173,738.825 430.642,738.86C429.868,737.801 428.907,736.967 427.831,736.628C426.52,736.065 426.665,734.105 425.446,732.936C423.739,730.57 423.161,728.055 422.517,726.607C422.636,726.851 422.718,727.078 422.788,727.256L422.813,727.317C422.589,726.652 422.106,725.063 420.405,724.474C419.231,724.068 418.493,723.271 417.909,722.73L418.087,722.872C417.765,722.579 417.12,721.792 416.052,721.994C415.599,721.749 414.597,721.555 413.595,722.023C413.054,722.273 412.685,722.661 412.454,723.051C412.243,723.216 412.077,723.579 412.085,724.027C412.325,724.468 412.37,724.986 412.554,725.566C412.604,725.693 412.675,725.852 412.685,725.938L412.69,725.938C412.87,725.884 412.821,725.7 412.874,725.586C412.931,725.325 412.96,725.077 412.999,724.848C413.063,724.485 413.208,724.186 413.392,724.015C413.36,724.146 413.347,724.36 413.466,724.568C413.604,724.752 413.784,724.837 413.911,724.868C413.913,725.079 413.927,725.294 413.96,725.514C413.935,725.893 414.466,726.849 414.679,726.588L414.694,726.563L414.755,726.394C414.794,726.021 414.929,725.586 415.056,725.429L415.136,725.411L415.144,725.418L415.14,725.407C415.267,725.378 415.427,725.337 415.599,725.28C415.823,725.215 416.024,725.149 416.151,725.097C416.028,725.234 415.913,725.407 415.823,725.602C415.561,726.117 415.515,726.63 415.561,727.078C415.528,727.172 415.499,727.266 415.477,727.368C415.315,728.011 415.708,728.727 416.114,728.703L416.136,728.716C416.054,728.362 416.106,728.013 416.206,727.509L416.224,727.411C416.374,727.288 416.538,727.214 416.669,727.161L416.677,727.185C416.78,727.229 417.005,727.277 417.257,727.188C417.354,727.136 417.436,727.073 417.501,727.011C417.583,727.287 417.739,727.831 418.235,728.269C418.386,728.373 418.532,728.451 418.681,728.506C418.983,729.325 419.183,730.692 419.386,732.321L419.272,732.523C419.061,732.852 418.685,733.118 418.372,733.535C418.046,733.983 417.995,734.483 417.97,734.87C417.935,735.69 418.14,736.368 418.413,736.753L418.45,736.82C418.386,736.432 418.362,735.901 418.448,735.29L418.479,735.353L418.487,735.387C418.597,735.211 418.716,735.01 418.851,734.779C418.864,735.08 418.968,735.354 419.104,735.535C419.089,735.727 419.081,735.921 419.089,736.117C419.108,736.95 418.856,737.656 418.665,738.227C418.31,738.732 417.976,739.274 417.907,739.865C417.827,740.577 418.153,741.085 418.401,741.341L418.438,741.393C418.376,741.037 418.261,740.53 418.423,740.021C418.472,739.865 418.546,739.708 418.638,739.551L418.642,739.555L418.649,739.586C418.769,739.292 419.001,739.103 419.356,738.863C419.188,739.1 419.04,739.435 419.065,739.74C419.065,740.381 419.183,740.862 419.308,741.232C419.345,741.561 419.435,741.833 419.526,742.006L419.536,742.043C419.767,741.621 419.858,740.898 420.179,740.141L420.333,740.066C420.474,740.61 420.618,741.077 420.741,741.45C420.64,741.707 420.517,741.957 420.366,742.188C419.872,742.803 419.229,743.406 419.079,744.23C418.964,745.123 419.638,745.566 419.962,745.72L420.019,745.76C419.802,745.438 419.423,744.923 419.597,744.396L419.597,744.391C419.979,744.291 420.477,744.144 421.022,743.826L421.188,743.723C421.419,743.717 421.61,743.784 421.727,743.798L421.765,743.815C421.507,743.945 421.132,744.478 421.2,745.153C421.245,745.763 421.536,746.236 421.757,746.449L421.788,746.552L421.774,746.474L421.811,746.505L421.774,746.464C421.77,746.282 421.843,746.012 421.979,745.727C422.118,745.442 422.323,745.116 422.485,745.2L422.481,745.207C422.304,745.445 422.069,746.053 422.265,746.729L422.3,746.828C422.169,747.07 422.048,747.318 421.929,747.569C420.743,747.336 419.692,747.155 418.901,747.088L419.013,747.06L418.882,747.066L418.825,747.084C418.577,747.061 418.356,747.051 418.165,747.059C418.331,747.061 418.52,747.073 418.731,747.101L418.604,747.119L418.587,747.119C417.874,747.138 416.829,746.985 416.165,747.952C415.536,749.087 414.237,750.157 412.563,750.11C411.794,750.124 410.946,749.67 410.27,750.147C409.681,750.652 409.399,751.306 409.036,751.846C408.825,752.105 408.702,752.371 408.63,752.634C408.515,752.715 408.407,752.821 408.321,752.96L408.229,753.171C408.116,753.267 408.013,753.39 407.933,753.542C407.62,754.097 407.909,754.759 408.226,754.817L408.243,754.83C408.319,754.493 408.413,754.226 408.587,753.885L408.606,753.849C408.657,754.173 408.731,754.465 408.753,754.708L408.755,754.78L408.698,754.9L408.724,754.725C408.645,755.163 408.181,756.247 408.899,757.208C409.032,757.367 409.177,757.499 409.327,757.609C409.446,757.868 409.628,758.119 409.882,758.322C410.657,759.026 411.778,758.976 412.091,758.574L412.124,758.554L411.993,758.538C411.722,758.283 411.345,757.978 411.097,757.549C411.042,757.46 411.003,757.368 410.968,757.276C411.606,757.061 412.286,756.788 412.304,756.394C412.474,756.339 412.669,756.226 412.798,756.003C413.038,755.401 412.989,755.86 413.151,756.046L413.108,755.835C413.179,755.955 413.575,756.477 414.124,756.725C414.147,756.891 414.19,757.069 414.267,757.253C414.696,758.138 415.649,758.143 415.95,757.964L415.979,757.96L415.772,757.801C415.614,757.534 415.431,757.29 415.392,756.966C415.364,756.82 415.343,756.664 415.315,756.51C415.425,756.351 415.485,756.161 415.519,755.996C415.737,755.78 416.024,755.504 416.173,755.065C416.161,754.787 416.192,754.493 416.247,754.263L416.251,754.264L416.251,754.255C416.315,753.956 416.413,753.759 416.503,753.801C416.425,753.744 416.333,753.841 416.261,754.025C416.321,753.797 416.517,753.585 416.854,753.966C417.358,753.752 417.106,753.204 417.304,753.102C417.435,753.116 417.62,753.191 417.862,753.199C417.659,753.808 417.645,754.462 417.595,755.331C417.655,754.307 418.358,754.007 419.089,753.434C418.417,753.912 418.401,754.656 418.608,755.418L418.577,755.518C418.399,756.166 418.394,756.888 418.696,757.425C419.001,757.975 419.522,758.132 419.823,758.142L419.876,758.156L419.765,758.074C419.874,758.127 419.981,758.157 420.071,758.165L420.132,758.186C419.854,757.942 419.515,757.563 419.528,757.019C419.52,756.643 419.63,756.199 419.79,755.725C419.911,755.579 420.05,755.44 420.19,755.32C420.183,755.861 420.517,756.295 420.558,756.838C420.601,757.42 420.347,758.064 420.257,758.63C420.054,759.903 420.96,760.349 421.415,761.439C421.159,760.626 421.427,759.242 422.374,758.974C422.528,760.163 422.929,761.043 423.544,762.052C423.313,761.521 423.802,760.912 423.952,760.53C423.858,761.119 424.048,761.733 424.198,762.304C424.44,762.143 424.513,761.852 424.88,761.732C425.136,762.298 425.282,762.932 425.591,763.455C425.88,763.941 426.376,764.245 426.724,764.671C425.72,764.857 424.784,764.969 424.124,765.811C423.243,766.936 422.974,768.526 422.821,769.905C422.694,771.058 422.661,772.229 422.411,773.366C422.237,774.16 421.575,776.136 420.593,776.276C419.401,776.444 418.886,775.95 418.616,775.218C418.741,774.603 418.796,773.886 418.702,773.1C418.645,772.683 418.513,772.188 418.19,771.827C417.872,771.443 417.386,771.315 417.022,771.307C416.446,771.31 416.013,771.461 415.685,771.609C414.852,771.555 414.05,771.691 413.38,772.08L413.144,771.96C412.526,771.632 411.589,771.849 411.319,772.394C411.198,772.603 411.112,772.779 411.04,772.938L410.897,773.126C410.843,773.218 410.81,773.308 410.79,773.393L410.772,773.415L410.784,773.414C410.708,773.784 410.899,774.085 411.042,774.201L411.065,774.233C410.993,773.774 411.274,773.313 411.819,773.275C412.218,773.809 413.038,774.004 412.96,774.914C412.534,775.069 412.034,775.394 411.831,775.894C411.497,776.483 411.423,777.207 411.657,777.734C411.886,778.269 412.321,778.502 412.602,778.58L412.645,778.602C412.468,778.388 412.298,778.088 412.216,777.734C412.259,777.538 412.411,777.376 412.739,777.251C412.923,777.166 413.106,777.114 413.286,777.081C413.362,777.702 413.388,778.58 413.729,779.178C413.61,779.351 413.52,779.553 413.485,779.786C413.372,780.246 413.45,780.768 413.747,781.102C414.06,781.444 414.464,781.418 414.647,781.329L414.681,781.322C414.386,781.17 414.194,780.926 414.153,780.57L414.155,780.566C414.224,780.409 414.474,780.219 414.845,780.041C415.034,779.948 415.226,779.861 415.409,779.774C416.534,779.969 417.888,780.393 418.769,779.589C418.827,779.737 418.923,779.841 419.036,779.909C418.774,779.99 418.542,780.071 418.372,780.167L418.343,780.175C418.622,780.423 419.265,780.614 420.015,780.389C420.257,780.316 420.515,780.163 420.683,779.948C420.669,780.075 420.655,780.203 420.64,780.331C420.774,780.323 420.882,780.337 420.977,780.36L420.966,780.383C420.431,780.511 419.948,780.597 419.63,780.705L419.587,780.712C420.019,780.972 420.976,781.201 422.075,780.833C422.606,780.648 423.13,780.186 423.192,779.644L423.202,779.496C423.561,779.668 423.897,779.857 424.216,780.063C424.167,780.399 424.12,780.715 424.104,780.984C423.946,781.107 423.786,781.179 423.62,781.183L423.583,781.182C423.696,781.383 424.136,781.493 424.524,781.311C424.913,781.148 425.263,780.816 425.52,780.401L425.63,780.215C426.075,779.969 426.519,779.649 426.649,779.205C426.819,778.64 426.378,778.152 426.444,777.614C426.7,775.609 428.86,775.147 429.694,773.292C429.813,773.399 429.933,773.501 430.058,773.597C430.036,773.718 430.022,773.84 430.02,773.964C429.997,774.427 430.114,774.871 430.3,775.186C430.319,775.695 430.532,776.136 430.792,776.265L430.813,776.285C430.854,775.873 430.913,775.384 431.089,774.734C431.128,774.59 431.167,774.445 431.202,774.304C433.183,775.232 435.503,774.93 437.075,773.151C434.481,776.899 440.177,779.894 442.163,782.282C443.14,783.457 445.839,785.469 445.894,787.056C445.974,789.489 444.132,787.689 442.935,787.598C441.839,787.515 441.101,788.232 441.056,789.034C440.839,789.146 440.626,789.31 440.448,789.528C440.167,789.853 440.007,790.333 440.132,790.736C440.263,791.146 440.593,791.283 440.784,791.294L440.815,791.306C440.671,791.038 440.618,790.773 440.714,790.49C440.991,790.448 441.272,790.385 441.573,790.265L441.602,790.254C441.696,790.337 441.798,790.414 441.915,790.488C441.778,790.561 441.683,790.641 441.618,790.733C441.399,790.86 441.224,791.079 441.14,791.31C440.845,791.977 441.263,792.752 441.671,792.708L441.694,792.714C441.645,792.554 441.642,792.387 441.663,792.212C441.847,792.142 442.026,792.127 442.272,792.013C442.407,791.957 442.536,791.884 442.653,791.803C442.956,791.838 443.261,791.858 443.554,791.899C443.39,792.09 443.255,792.331 443.181,792.636C443.077,793.123 443.261,793.639 443.554,793.893C443.843,794.156 444.153,794.207 444.36,794.201L444.394,794.208C444.14,793.852 443.755,793.363 443.905,792.787L443.921,792.724C443.966,792.846 444.04,792.939 444.132,792.987L444.14,793L444.192,792.949C444.954,793.723 446.433,793.63 447.364,793.435C447.868,793.331 449.241,793.229 449.544,792.936C449.7,792.786 450.114,790.857 449.997,790.691C450.235,791.024 450.477,791.038 450.77,790.968L450.831,791.154C450.952,791.591 451.173,792.013 451.417,792.257C451.413,792.505 451.425,792.721 451.462,792.894L451.462,792.939C451.749,792.489 452.243,791.61 452.216,790.355C452.188,789.74 451.938,789.158 451.604,788.796C451.511,788.695 451.417,788.608 451.321,788.533C451.261,788.326 451.226,788.103 451.245,787.834C452.194,787.335 451.462,786.813 451.278,786.204C451.069,785.512 451.458,785.009 451.39,784.309C451.28,783.172 450.362,783.757 449.577,783.403C447.938,782.663 448.36,780.781 447.563,779.533C447.679,779.586 447.79,779.632 447.913,779.667C449.122,779.997 450.144,779.55 450.602,779.146C450.825,779.068 450.999,778.952 451.114,778.834L451.167,778.801C450.446,779.017 449.261,778.723 448.337,777.602C448.243,777.495 448.153,777.385 448.067,777.273C447.948,776.926 447.901,776.529 447.931,776.076C448.325,776.563 448.964,776.724 449.581,776.631C449.753,776.678 449.927,776.706 450.097,776.707C450.759,776.722 451.22,776.389 451.438,776.132L451.483,776.095C451.167,776.215 450.735,776.269 450.276,776.181C449.513,775.75 448.767,775.551 448.546,774.552L448.515,774.374C448.681,774.488 448.856,774.563 449.009,774.596C449.265,774.67 449.495,774.686 449.692,774.674C450.196,774.87 450.694,774.852 450.942,774.736L450.987,774.73C450.503,774.488 449.655,774.168 449.226,773.327C449.044,772.979 448.923,772.615 448.835,772.269L448.923,772.014C449.352,772.057 449.782,772.248 450.214,772.438C450.626,772.65 451.061,772.85 451.52,773.033C453.005,773.62 454.716,774.205 456.677,773.977C457.374,773.901 458.065,773.601 458.651,773.146C459.503,772.646 460.233,771.891 460.628,770.847C461.013,769.779 460.819,768.533 460.229,767.557C459.899,766.994 459.477,766.517 459.003,766.093C458.956,765.609 458.87,765.13 458.739,764.663C458.31,763.084 456.515,761.739 455.364,760.589C454.46,759.685 453.538,758.661 452.698,757.704C452.251,757.194 451.888,756.517 451.657,755.791L451.665,755.788C452.071,755.636 452.519,755.563 452.999,755.595L453.101,755.598C453.513,755.632 453.903,755.715 454.267,755.839C454.794,756.054 455.249,756.406 455.579,756.864C456.2,757.636 456.374,758.597 456.769,759.49C457.155,760.357 457.644,761.119 458.284,761.613C458.567,761.841 458.886,761.954 459.19,761.979C459.536,762.084 459.894,762.07 460.19,762.031C461.325,761.869 461.841,760.833 461.71,760.273L461.712,760.175C461.63,760.733 461.091,761.433 460.206,761.485C459.792,761.517 459.272,761.411 459.036,761.119C458.806,760.817 458.702,760.166 458.577,759.618C458.39,758.401 458.085,757.21 457.423,756.361C456.843,755.548 455.899,755.459 455.37,755.651C454.716,755.148 453.864,754.843 453.015,754.855C452.487,754.82 451.966,754.906 451.479,755.084C451.153,753.345 451.665,751.55 453.694,751.221C456.821,750.714 456.253,754.785 458.45,755.962C459.811,756.694 461.071,756.479 462.452,756.013C463.142,755.777 466.069,755.132 465.39,756.846C464.888,757.016 464.237,757.183 463.87,756.654C464.532,757.607 466.173,757.371 466.542,756.25C467.028,754.766 465.011,754.103 464.122,753.507Z" style="fill:rgb(10,12,18);fill-rule:nonzero;"/>
        </g>
        <g transform="matrix(0.529179,0,0,0.529179,241.247,119.678)">
            <path d="M430.646,298.43C430.646,319.481 423.776,340.69 410.226,361.467C399.463,377.969 384.479,394.238 365.689,409.826C349.021,423.653 332.367,434.381 321.331,440.947C309.36,448.07 301.442,451.867 301.11,452.026L300,452.557L298.889,452.026C298.558,451.867 290.64,448.07 278.668,440.947C267.633,434.381 250.979,423.653 234.31,409.826C215.521,394.238 200.537,377.969 189.773,361.467C176.225,340.69 169.353,319.481 169.353,298.43L169.353,149.184L171.187,148.656C190.681,143.032 211.36,138.699 232.651,135.777C254.56,132.771 277.22,131.247 300,131.247C322.78,131.247 345.439,132.771 367.348,135.777C388.639,138.699 409.319,143.032 428.814,148.656L430.646,149.184L430.646,298.43ZM438.757,143.539C417.758,137.396 395.481,132.664 372.547,129.472C348.947,126.188 324.538,124.524 300,124.524C275.461,124.524 251.053,126.188 227.453,129.472C204.519,132.664 182.242,137.396 161.243,143.539L159.269,144.116L159.269,307.129C159.269,330.123 166.67,353.289 181.265,375.98C192.859,394.007 209,411.777 229.24,428.802C247.196,443.905 265.135,455.624 277.021,462.796C289.917,470.575 298.446,474.724 298.803,474.897L300,475.477L301.196,474.897C301.554,474.724 310.082,470.575 322.979,462.796C334.865,455.624 352.805,443.905 370.76,428.802C390.999,411.777 407.142,394.007 418.734,375.98C433.331,353.289 440.73,330.123 440.73,307.129L440.73,144.116L438.757,143.539Z" style="fill-rule:nonzero;"/>
        </g>
        <g transform="matrix(1.05709,0,0,1.05709,-44.6236,67.227)">
            <path d="M432.363,245.252L428.585,245.252C423.665,245.19 422.648,241.86 422.521,240.74L418.698,240.74C418.571,241.86 417.555,245.19 412.634,245.252L408.856,245.252C406.504,245.252 404.597,247.159 404.597,249.512L436.623,249.512C436.623,247.159 434.716,245.252 432.363,245.252Z" style="fill:rgb(3,4,4);fill-rule:nonzero;"/>
        </g>
        <g transform="matrix(1.05709,0,0,1.05709,-44.6236,67.227)">
            <path d="M388.302,231.975C389.791,236.085 393.728,239.022 398.353,239.022C402.977,239.022 406.915,236.085 408.403,231.975L388.302,231.975Z" style="fill:rgb(3,4,4);fill-rule:nonzero;"/>
        </g>
        <g transform="matrix(1.05709,0,0,1.05709,-44.6236,67.227)">
            <path d="M407.089,232.544L398.353,217.337L389.616,232.544L389.142,232.272L398.353,216.24L407.563,232.272L407.089,232.544Z" style="fill:rgb(3,4,4);fill-rule:nonzero;"/>
        </g>
        <g transform="matrix(1.05709,0,0,1.05709,-44.6236,67.227)">
            <rect x="398.08" y="210.337" width="0.545" height="24.381" style="fill:rgb(3,4,4);fill-rule:nonzero;"/>
        </g>
        <g transform="matrix(1.05709,0,0,1.05709,-44.6236,67.227)">
            <path d="M399.598,217.215C399.598,217.878 399.061,218.416 398.397,218.416C397.734,218.416 397.197,217.878 397.197,217.215C397.197,216.552 397.734,216.015 398.397,216.015C399.061,216.015 399.598,216.552 399.598,217.215Z" style="fill:rgb(3,4,4);fill-rule:nonzero;"/>
        </g>
        <g transform="matrix(1.05709,0,0,1.05709,-44.6236,67.227)">
            <path d="M432.816,231.975C434.305,236.085 438.243,239.022 442.867,239.022C447.491,239.022 451.429,236.085 452.918,231.975L432.816,231.975Z" style="fill:rgb(3,4,4);fill-rule:nonzero;"/>
        </g>
        <g transform="matrix(1.05709,0,0,1.05709,-44.6236,67.227)">
            <path d="M451.604,232.544L442.867,217.337L434.13,232.544L433.657,232.272L442.867,216.24L452.078,232.272L451.604,232.544Z" style="fill:rgb(3,4,4);fill-rule:nonzero;"/>
        </g>
        <g transform="matrix(1.05709,0,0,1.05709,-44.6236,67.227)">
            <rect x="442.594" y="210.337" width="0.546" height="24.381" style="fill:rgb(3,4,4);fill-rule:nonzero;"/>
        </g>
        <g transform="matrix(1.05709,0,0,1.05709,-44.6236,67.227)">
            <path d="M444.112,217.215C444.112,217.878 443.575,218.416 442.912,218.416C442.249,218.416 441.711,217.878 441.711,217.215C441.711,216.552 442.249,216.015 442.912,216.015C443.575,216.015 444.112,216.552 444.112,217.215Z" style="fill:rgb(3,4,4);fill-rule:nonzero;"/>
        </g>
        <g transform="matrix(1.05709,0,0,1.05709,-44.6236,67.227)">
            <path d="M445.805,209.723L445.795,209.695C445.602,209.181 445.063,208.889 444.525,208.999C442.491,209.416 437.409,210.041 432.406,207.35C425.958,203.881 420.622,207.075 420.61,207.082C420.598,207.075 415.261,203.881 408.813,207.35C403.811,210.041 398.728,209.416 396.694,208.999C396.156,208.889 395.618,209.181 395.425,209.695L395.415,209.723C395.173,210.365 395.564,211.068 396.237,211.202C398.542,211.66 403.656,212.351 408.769,210.866C415.668,208.863 417.983,210.777 420.609,214.07L420.609,214.071L420.61,214.071L420.61,214.07C423.236,210.777 425.552,208.863 432.451,210.866C437.564,212.351 442.677,211.66 444.982,211.202C445.655,211.068 446.046,210.365 445.805,209.723Z" style="fill:rgb(3,4,4);fill-rule:nonzero;"/>
        </g>
        <g transform="matrix(1.05709,0,0,1.05709,-44.6236,67.227)">
            <path d="M422.521,247.196L422.521,204.593C422.521,203.537 421.666,202.682 420.61,202.682C419.554,202.682 418.698,203.537 418.698,204.593L418.698,247.196L422.521,247.196Z" style="fill:rgb(3,4,4);fill-rule:nonzero;"/>
        </g>
        <g transform="matrix(0.529179,0,0,0.529179,241.247,119.678)">
            <path d="M422.186,154.547C403.693,149.192 384.077,145.066 363.882,142.284C343.102,139.421 321.607,137.97 300,137.97C278.392,137.97 256.898,139.421 236.117,142.284C215.922,145.066 196.306,149.192 177.815,154.547L176.077,155.05L176.077,297.167C176.077,317.213 182.594,337.409 195.446,357.192C202.999,368.818 212.746,380.322 224.521,391.532C214.759,381.537 206.575,371.321 200.086,361.008C187.805,341.487 181.577,321.559 181.577,301.779L181.577,161.546L183.238,161.05C200.909,155.766 219.654,151.695 238.952,148.95C258.812,146.125 279.352,144.693 300,144.693C320.648,144.693 341.188,146.125 361.046,148.95C380.345,151.695 399.091,155.766 416.761,161.05L418.423,161.546L418.423,301.779C418.423,321.559 412.195,341.487 399.912,361.008C393.426,371.318 385.243,381.534 375.482,391.527C387.257,380.319 397.002,368.816 404.553,357.192C417.407,337.409 423.924,317.213 423.924,297.167L423.924,155.05L422.186,154.547Z" style="fill-rule:nonzero;"/>
        </g>
        <g transform="matrix(0.0622436,0,0,0.0622436,325.308,107.789)">
            <path d="M810.833,1189.6C810.469,1189.74 810.102,1189.89 809.738,1190.04L843.492,1262.97C872.68,1250.63 908.7,1239.86 949.889,1231.18C1020.8,1216.23 1107.02,1207.47 1200,1207.47C1292.98,1207.47 1379.2,1216.23 1450.11,1231.18C1491.3,1239.86 1527.32,1250.63 1556.51,1262.97L1590.26,1190.04C1589.9,1189.89 1589.53,1189.74 1589.17,1189.6C1490.64,1149.13 1352.69,1123.99 1200,1123.99C1047.31,1123.99 909.362,1149.13 810.833,1189.6ZM934.467,1174.86C924.182,1174.86 915.841,1183.2 915.841,1193.49C915.841,1203.77 924.182,1212.11 934.467,1212.11C944.753,1212.11 953.094,1203.77 953.094,1193.49C953.094,1183.2 944.753,1174.86 934.467,1174.86ZM1069.33,1156.23C1059.04,1156.23 1050.7,1164.57 1050.7,1174.86C1050.7,1185.15 1059.04,1193.49 1069.33,1193.49C1079.61,1193.49 1087.95,1185.15 1087.95,1174.86C1087.95,1164.57 1079.61,1156.23 1069.33,1156.23ZM1465.53,1174.86C1475.82,1174.86 1484.16,1183.2 1484.16,1193.49C1484.16,1203.77 1475.82,1212.11 1465.53,1212.11C1455.25,1212.11 1446.91,1203.77 1446.91,1193.49C1446.91,1183.2 1455.25,1174.86 1465.53,1174.86ZM1330.67,1156.23C1340.96,1156.23 1349.3,1164.57 1349.3,1174.86C1349.3,1185.15 1340.96,1193.49 1330.67,1193.49C1320.39,1193.49 1312.05,1185.15 1312.05,1174.86C1312.05,1164.57 1320.39,1156.23 1330.67,1156.23ZM1200,1148.71C1210.29,1148.71 1218.63,1157.05 1218.63,1167.33C1218.63,1177.62 1210.29,1185.96 1200,1185.96C1189.71,1185.96 1181.37,1177.62 1181.37,1167.33C1181.37,1157.05 1189.71,1148.71 1200,1148.71Z"/>
        </g>
        <g transform="matrix(0.0622436,0,0,0.0622436,325.308,107.789)">
            <path d="M796.708,1159.68C900.833,1115.48 1043.11,1088.25 1200,1088.25C1356.89,1088.25 1499.17,1115.48 1603.29,1159.68L1724.64,902.715L1667.17,909.823C1667.4,911.769 1667.53,913.745 1667.53,915.755C1667.53,942.423 1645.92,964.038 1619.25,964.038C1600.08,964.038 1583.53,952.87 1575.73,936.689L1614.92,931.53L1498.96,865.761C1516.2,895.469 1535.31,937.089 1535.31,968.103C1535.31,1021.43 1492.08,1064.66 1438.75,1064.66C1385.42,1064.66 1342.19,1021.43 1342.19,968.103C1342.19,936.832 1357.07,909.042 1380.11,891.39L1386.45,897.501L1401.38,853.145L1416.3,808.792L1372.52,825.322L1328.73,841.852L1335.28,848.16C1326.83,862.17 1311.46,871.541 1293.91,871.541C1267.24,871.541 1245.63,849.926 1245.63,823.257C1245.63,804.015 1256.88,787.403 1273.17,779.646L1200,705.025L1126.83,779.646C1143.12,787.403 1154.37,804.015 1154.37,823.257C1154.37,849.926 1132.76,871.541 1106.09,871.541C1088.54,871.541 1073.17,862.17 1064.72,848.16L1071.27,841.852L1027.48,825.322L983.702,808.792L998.623,853.145L1013.55,897.501L1019.89,891.39C1042.93,909.042 1057.81,936.832 1057.81,968.103C1057.81,1021.43 1014.58,1064.66 961.25,1064.66C907.918,1064.66 864.688,1021.43 864.688,968.103C864.688,937.089 883.802,895.469 901.036,865.761L785.08,931.53L824.268,936.689C816.47,952.87 799.917,964.038 780.748,964.038C754.084,964.038 732.47,942.423 732.47,915.755C732.47,913.745 732.598,911.769 732.833,909.823L675.358,902.715L796.708,1159.68Z"/>
        </g>
        <g transform="matrix(0.0622436,0,0,0.0622436,325.308,107.789)">
            <path d="M1372.52,825.323L1328.73,841.853L1335.28,848.16C1326.83,862.17 1311.46,871.541 1293.91,871.541C1267.24,871.541 1245.63,849.927 1245.63,823.259C1245.63,804.014 1256.88,787.403 1273.17,779.645L1200,705.025L1200,1088.25C1356.89,1088.25 1499.17,1115.48 1603.29,1159.68L1724.64,902.715L1667.17,909.824C1667.4,911.768 1667.53,913.745 1667.53,915.755C1667.53,942.423 1645.91,964.039 1619.25,964.039C1600.08,964.039 1583.53,952.871 1575.73,936.69L1614.92,931.53L1498.96,865.761C1516.2,895.469 1535.31,937.089 1535.31,968.102C1535.31,1021.43 1492.08,1064.67 1438.75,1064.67C1385.42,1064.67 1342.19,1021.43 1342.19,968.102C1342.19,936.831 1357.07,909.041 1380.11,891.391L1386.45,897.5L1401.38,853.145L1416.3,808.792L1372.52,825.323Z"/>
        </g>
        <g transform="matrix(0.0622436,0,0,0.0622436,325.308,107.789)">
            <path d="M1589.17,1189.6C1490.64,1149.13 1352.69,1123.99 1200,1123.99L1200,1148.71C1210.28,1148.71 1218.63,1157.05 1218.63,1167.33C1218.63,1177.62 1210.28,1185.96 1200,1185.96L1200,1207.47C1292.99,1207.47 1379.2,1216.23 1450.11,1231.18C1491.3,1239.86 1527.32,1250.63 1556.51,1262.97L1590.26,1190.04L1589.17,1189.6ZM1312.05,1174.86C1312.05,1164.57 1320.39,1156.23 1330.67,1156.23C1340.96,1156.23 1349.3,1164.57 1349.3,1174.86C1349.3,1185.15 1340.96,1193.48 1330.67,1193.48C1320.39,1193.48 1312.05,1185.15 1312.05,1174.86ZM1465.53,1212.11C1455.25,1212.11 1446.9,1203.77 1446.9,1193.48C1446.9,1183.2 1455.25,1174.86 1465.53,1174.86C1475.82,1174.86 1484.16,1183.2 1484.16,1193.48C1484.16,1203.77 1475.82,1212.11 1465.53,1212.11Z"/>
        </g>
        <g transform="matrix(1.52867,0,0,1.52867,-264.396,-421.232)">
            <g transform="matrix(15.5352,0,0,30,375.058,547.571)">
                <path d="M0.026,-0.676L0.628,-0.676L0.629,-0.474L0.601,-0.474C0.591,-0.546 0.564,-0.595 0.52,-0.62C0.494,-0.634 0.457,-0.642 0.407,-0.643L0.407,-0.117C0.407,-0.08 0.414,-0.056 0.427,-0.043C0.439,-0.031 0.466,-0.025 0.507,-0.025L0.507,-0L0.15,-0L0.15,-0.025C0.189,-0.025 0.215,-0.031 0.228,-0.044C0.241,-0.056 0.248,-0.08 0.248,-0.117L0.248,-0.643C0.199,-0.642 0.161,-0.634 0.135,-0.62C0.087,-0.594 0.06,-0.545 0.054,-0.474L0.025,-0.474L0.026,-0.676Z" style="fill-rule:nonzero;"/>
            </g>
            <g transform="matrix(15.5352,0,0,30,385.42,547.571)">
                <path d="M0.014,-0.025C0.052,-0.026 0.076,-0.032 0.088,-0.046C0.099,-0.059 0.105,-0.079 0.105,-0.105L0.105,-0.58C0.105,-0.607 0.098,-0.625 0.085,-0.634C0.072,-0.642 0.049,-0.648 0.016,-0.65L0.016,-0.676L0.268,-0.676L0.465,-0.213L0.473,-0.213L0.669,-0.676L0.921,-0.676L0.921,-0.65C0.887,-0.648 0.864,-0.642 0.852,-0.632C0.839,-0.622 0.833,-0.597 0.833,-0.559L0.833,-0.117C0.833,-0.08 0.839,-0.056 0.852,-0.044C0.864,-0.033 0.887,-0.027 0.921,-0.025L0.921,-0L0.589,-0L0.589,-0.025C0.618,-0.026 0.641,-0.031 0.656,-0.04C0.671,-0.049 0.678,-0.069 0.678,-0.099L0.678,-0.588L0.671,-0.588L0.426,-0L0.399,-0L0.151,-0.576L0.147,-0.576L0.147,-0.124C0.147,-0.09 0.153,-0.066 0.166,-0.051C0.178,-0.035 0.205,-0.027 0.248,-0.025L0.248,-0L0.014,-0L0.014,-0.025Z" style="fill-rule:nonzero;"/>
            </g>
            <g transform="matrix(15.5352,0,0,30,407.85,547.571)">
                <path d="M0.018,-0.025C0.045,-0.026 0.065,-0.03 0.077,-0.036C0.097,-0.047 0.106,-0.066 0.106,-0.096L0.106,-0.58C0.106,-0.609 0.097,-0.629 0.078,-0.639C0.067,-0.645 0.047,-0.649 0.018,-0.65L0.018,-0.676L0.368,-0.676L0.368,-0.65C0.327,-0.649 0.3,-0.643 0.286,-0.633C0.273,-0.623 0.266,-0.598 0.266,-0.559L0.266,-0.086C0.266,-0.064 0.272,-0.05 0.283,-0.042C0.295,-0.035 0.318,-0.032 0.351,-0.032C0.411,-0.032 0.462,-0.045 0.503,-0.072C0.544,-0.098 0.579,-0.15 0.608,-0.227L0.638,-0.227L0.597,-0L0.018,-0L0.018,-0.025Z" style="fill-rule:nonzero;"/>
            </g>
            <g transform="matrix(15.5352,0,0,30,418.212,547.571)">
                <path d="M0.393,-0.236L0.297,-0.467L0.289,-0.467L0.199,-0.236L0.393,-0.236ZM0.018,-0.025C0.042,-0.027 0.062,-0.038 0.076,-0.058C0.086,-0.071 0.099,-0.099 0.117,-0.142L0.339,-0.689L0.367,-0.689L0.59,-0.164C0.615,-0.105 0.634,-0.067 0.646,-0.05C0.658,-0.033 0.676,-0.025 0.699,-0.025L0.699,-0L0.375,-0L0.375,-0.025C0.408,-0.027 0.429,-0.029 0.439,-0.034C0.449,-0.038 0.455,-0.049 0.455,-0.066C0.455,-0.074 0.452,-0.086 0.447,-0.102C0.444,-0.111 0.439,-0.122 0.434,-0.136L0.408,-0.196L0.184,-0.196C0.169,-0.157 0.16,-0.131 0.155,-0.119C0.146,-0.093 0.142,-0.074 0.142,-0.063C0.142,-0.048 0.152,-0.038 0.171,-0.031C0.182,-0.028 0.199,-0.026 0.222,-0.025L0.222,-0L0.018,-0L0.018,-0.025Z" style="fill-rule:nonzero;"/>
            </g>
            <g transform="matrix(15.5352,0,0,30,429.431,547.571)">
                <path d="M0.313,-0.676L0.313,-0.65C0.288,-0.648 0.272,-0.645 0.263,-0.64C0.254,-0.636 0.25,-0.625 0.25,-0.609C0.25,-0.605 0.25,-0.6 0.251,-0.594C0.252,-0.588 0.253,-0.582 0.255,-0.576L0.371,-0.227L0.379,-0.227L0.494,-0.52C0.495,-0.521 0.49,-0.536 0.48,-0.564C0.47,-0.592 0.463,-0.609 0.459,-0.616C0.452,-0.627 0.444,-0.636 0.435,-0.641C0.426,-0.646 0.41,-0.649 0.386,-0.65L0.386,-0.676L0.699,-0.676L0.699,-0.65C0.67,-0.648 0.651,-0.645 0.641,-0.641C0.632,-0.637 0.627,-0.628 0.627,-0.615C0.627,-0.611 0.628,-0.605 0.63,-0.596C0.632,-0.587 0.636,-0.574 0.641,-0.558L0.745,-0.236L0.752,-0.236L0.861,-0.564C0.863,-0.57 0.864,-0.577 0.866,-0.583C0.867,-0.59 0.868,-0.597 0.868,-0.605C0.868,-0.624 0.861,-0.636 0.847,-0.643C0.838,-0.646 0.822,-0.649 0.798,-0.65L0.798,-0.676L0.981,-0.676L0.981,-0.65C0.966,-0.648 0.954,-0.644 0.946,-0.639C0.931,-0.629 0.92,-0.611 0.912,-0.586L0.711,0.017L0.685,0.017L0.517,-0.452L0.51,-0.452L0.327,0.017L0.299,0.017L0.088,-0.586C0.079,-0.613 0.07,-0.63 0.061,-0.637C0.051,-0.644 0.037,-0.649 0.018,-0.651L0.018,-0.676L0.313,-0.676Z" style="fill-rule:nonzero;"/>
            </g>
            <g transform="matrix(15.5352,0,0,30,452.734,547.571)">
                <path d="M0.016,-0.025C0.045,-0.026 0.065,-0.03 0.077,-0.037C0.096,-0.048 0.105,-0.067 0.105,-0.096L0.105,-0.58C0.105,-0.609 0.096,-0.628 0.078,-0.638C0.067,-0.644 0.046,-0.648 0.016,-0.65L0.016,-0.676L0.583,-0.676L0.583,-0.474L0.559,-0.474C0.546,-0.536 0.525,-0.58 0.496,-0.605C0.467,-0.63 0.413,-0.642 0.334,-0.642C0.305,-0.642 0.286,-0.639 0.278,-0.632C0.27,-0.625 0.266,-0.613 0.266,-0.595L0.266,-0.363C0.32,-0.362 0.357,-0.374 0.376,-0.397C0.395,-0.421 0.409,-0.459 0.419,-0.511L0.444,-0.511L0.444,-0.173L0.419,-0.173C0.412,-0.227 0.398,-0.267 0.378,-0.292C0.357,-0.316 0.32,-0.329 0.266,-0.329L0.266,-0.096C0.266,-0.065 0.275,-0.045 0.293,-0.037C0.311,-0.029 0.339,-0.025 0.376,-0.025L0.376,-0L0.016,-0L0.016,-0.025Z" style="fill-rule:nonzero;"/>
            </g>
            <g transform="matrix(15.5352,0,0,30,462.223,547.571)">
                <path d="M0.016,-0.025C0.044,-0.026 0.065,-0.029 0.077,-0.036C0.097,-0.046 0.107,-0.066 0.107,-0.096L0.107,-0.58C0.107,-0.609 0.098,-0.629 0.079,-0.639C0.067,-0.645 0.046,-0.649 0.016,-0.65L0.016,-0.676L0.366,-0.676L0.366,-0.65C0.334,-0.649 0.313,-0.646 0.301,-0.64C0.282,-0.63 0.272,-0.61 0.272,-0.58L0.272,-0.096C0.272,-0.068 0.28,-0.049 0.295,-0.04C0.311,-0.03 0.334,-0.025 0.366,-0.025L0.366,-0L0.016,-0L0.016,-0.025Z" style="fill-rule:nonzero;"/>
            </g>
            <g transform="matrix(15.5352,0,0,30,468.269,547.571)">
                <path d="M0.016,-0.025C0.05,-0.027 0.073,-0.033 0.085,-0.044C0.098,-0.056 0.104,-0.08 0.104,-0.117L0.104,-0.559C0.104,-0.597 0.097,-0.623 0.082,-0.634C0.072,-0.642 0.05,-0.647 0.016,-0.65L0.016,-0.676L0.338,-0.676C0.405,-0.676 0.459,-0.669 0.5,-0.655C0.58,-0.626 0.62,-0.576 0.62,-0.502C0.62,-0.448 0.6,-0.405 0.56,-0.374C0.529,-0.35 0.497,-0.335 0.463,-0.329L0.664,-0.044C0.67,-0.036 0.675,-0.031 0.682,-0.029C0.688,-0.026 0.695,-0.025 0.705,-0.024L0.705,-0L0.5,-0L0.292,-0.313L0.266,-0.313L0.266,-0.117C0.266,-0.082 0.272,-0.058 0.284,-0.046C0.295,-0.033 0.319,-0.027 0.354,-0.025L0.354,-0L0.016,-0L0.016,-0.025ZM0.266,-0.345C0.332,-0.346 0.378,-0.355 0.406,-0.372C0.435,-0.39 0.449,-0.43 0.449,-0.493C0.449,-0.532 0.443,-0.563 0.433,-0.585C0.414,-0.623 0.38,-0.642 0.331,-0.642C0.304,-0.642 0.287,-0.639 0.279,-0.632C0.27,-0.625 0.266,-0.614 0.266,-0.599L0.266,-0.345Z" style="fill-rule:nonzero;"/>
            </g>
            <g transform="matrix(15.5352,0,0,30,479.488,547.571)">
                <path d="M0.014,-0.025C0.052,-0.026 0.076,-0.032 0.088,-0.046C0.099,-0.059 0.105,-0.079 0.105,-0.105L0.105,-0.58C0.105,-0.607 0.098,-0.625 0.085,-0.634C0.072,-0.642 0.049,-0.648 0.016,-0.65L0.016,-0.676L0.268,-0.676L0.465,-0.213L0.473,-0.213L0.669,-0.676L0.921,-0.676L0.921,-0.65C0.887,-0.648 0.864,-0.642 0.852,-0.632C0.839,-0.622 0.833,-0.597 0.833,-0.559L0.833,-0.117C0.833,-0.08 0.839,-0.056 0.852,-0.044C0.864,-0.033 0.887,-0.027 0.921,-0.025L0.921,-0L0.589,-0L0.589,-0.025C0.618,-0.026 0.641,-0.031 0.656,-0.04C0.671,-0.049 0.678,-0.069 0.678,-0.099L0.678,-0.588L0.671,-0.588L0.426,-0L0.399,-0L0.151,-0.576L0.147,-0.576L0.147,-0.124C0.147,-0.09 0.153,-0.066 0.166,-0.051C0.178,-0.035 0.205,-0.027 0.248,-0.025L0.248,-0L0.014,-0L0.014,-0.025Z" style="fill-rule:nonzero;"/>
            </g>
        </g>
        <g transform="matrix(1.52867,0,0,1.52867,-251.127,-393.206)">
            <g transform="matrix(7.35994,0,0,14.2127,375.058,547.571)">
                <path d="M0.393,-0.236L0.297,-0.467L0.289,-0.467L0.199,-0.236L0.393,-0.236ZM0.018,-0.025C0.042,-0.027 0.062,-0.038 0.076,-0.058C0.086,-0.071 0.099,-0.099 0.117,-0.142L0.339,-0.689L0.367,-0.689L0.59,-0.164C0.615,-0.105 0.634,-0.067 0.646,-0.05C0.658,-0.033 0.676,-0.025 0.699,-0.025L0.699,-0L0.375,-0L0.375,-0.025C0.408,-0.027 0.429,-0.029 0.439,-0.034C0.449,-0.038 0.455,-0.049 0.455,-0.066C0.455,-0.074 0.452,-0.086 0.447,-0.102C0.444,-0.111 0.439,-0.122 0.434,-0.136L0.408,-0.196L0.184,-0.196C0.169,-0.157 0.16,-0.131 0.155,-0.119C0.146,-0.093 0.142,-0.074 0.142,-0.063C0.142,-0.048 0.152,-0.038 0.171,-0.031C0.182,-0.028 0.199,-0.026 0.222,-0.025L0.222,-0L0.018,-0L0.018,-0.025Z" style="fill-rule:nonzero;"/>
            </g>
            <g transform="matrix(7.35994,0,0,14.2127,380.373,547.571)">
                <path d="M0.016,-0.417L0.016,-0.444C0.025,-0.452 0.036,-0.462 0.049,-0.473C0.066,-0.489 0.082,-0.506 0.098,-0.522C0.128,-0.556 0.155,-0.591 0.18,-0.629L0.206,-0.629L0.206,-0.46L0.301,-0.46L0.301,-0.417L0.206,-0.417L0.206,-0.116C0.206,-0.102 0.208,-0.09 0.212,-0.081C0.218,-0.066 0.229,-0.059 0.244,-0.059C0.257,-0.059 0.268,-0.063 0.277,-0.073C0.286,-0.082 0.294,-0.095 0.303,-0.111L0.327,-0.099C0.315,-0.072 0.301,-0.049 0.285,-0.032C0.257,-0.002 0.222,0.013 0.18,0.013C0.157,0.013 0.136,0.009 0.119,-0C0.085,-0.017 0.068,-0.048 0.068,-0.092L0.068,-0.417L0.016,-0.417Z" style="fill-rule:nonzero;"/>
            </g>
            <g transform="matrix(7.35994,0,0,14.2127,382.824,547.571)">
                <path d="M0.016,-0.417L0.016,-0.444C0.025,-0.452 0.036,-0.462 0.049,-0.473C0.066,-0.489 0.082,-0.506 0.098,-0.522C0.128,-0.556 0.155,-0.591 0.18,-0.629L0.206,-0.629L0.206,-0.46L0.301,-0.46L0.301,-0.417L0.206,-0.417L0.206,-0.116C0.206,-0.102 0.208,-0.09 0.212,-0.081C0.218,-0.066 0.229,-0.059 0.244,-0.059C0.257,-0.059 0.268,-0.063 0.277,-0.073C0.286,-0.082 0.294,-0.095 0.303,-0.111L0.327,-0.099C0.315,-0.072 0.301,-0.049 0.285,-0.032C0.257,-0.002 0.222,0.013 0.18,0.013C0.157,0.013 0.136,0.009 0.119,-0C0.085,-0.017 0.068,-0.048 0.068,-0.092L0.068,-0.417L0.016,-0.417Z" style="fill-rule:nonzero;"/>
            </g>
            <g transform="matrix(7.35994,0,0,14.2127,385.275,547.571)">
                <path d="M0.022,-0.229C0.022,-0.299 0.043,-0.357 0.086,-0.403C0.129,-0.45 0.183,-0.473 0.248,-0.473C0.314,-0.473 0.368,-0.449 0.41,-0.402C0.452,-0.354 0.473,-0.297 0.473,-0.229C0.473,-0.162 0.452,-0.105 0.411,-0.057C0.369,-0.009 0.315,0.015 0.248,0.015C0.182,0.015 0.129,-0.008 0.086,-0.055C0.043,-0.102 0.022,-0.16 0.022,-0.229ZM0.169,-0.229C0.169,-0.159 0.173,-0.11 0.18,-0.082C0.191,-0.039 0.214,-0.017 0.248,-0.017C0.28,-0.017 0.301,-0.034 0.311,-0.067C0.321,-0.1 0.326,-0.154 0.326,-0.229C0.326,-0.304 0.321,-0.358 0.31,-0.391C0.3,-0.424 0.279,-0.441 0.248,-0.441C0.214,-0.441 0.192,-0.419 0.18,-0.376C0.173,-0.347 0.169,-0.298 0.169,-0.229Z" style="fill-rule:nonzero;"/>
            </g>
            <g transform="matrix(7.35994,0,0,14.2127,388.955,547.571)">
                <path d="M0.018,-0.024C0.037,-0.026 0.051,-0.031 0.058,-0.038C0.066,-0.044 0.07,-0.058 0.07,-0.077L0.071,-0.106L0.071,-0.378C0.071,-0.399 0.068,-0.413 0.061,-0.421C0.053,-0.428 0.039,-0.433 0.018,-0.436L0.018,-0.46L0.208,-0.46L0.208,-0.382C0.229,-0.41 0.25,-0.431 0.271,-0.448C0.292,-0.464 0.316,-0.472 0.343,-0.472C0.364,-0.472 0.382,-0.466 0.399,-0.452C0.415,-0.439 0.423,-0.42 0.423,-0.395C0.423,-0.375 0.418,-0.359 0.406,-0.346C0.394,-0.333 0.379,-0.327 0.361,-0.327C0.34,-0.327 0.321,-0.337 0.306,-0.357C0.29,-0.377 0.28,-0.387 0.273,-0.387C0.26,-0.387 0.247,-0.378 0.233,-0.362C0.22,-0.346 0.213,-0.322 0.213,-0.292L0.213,-0.103C0.213,-0.069 0.218,-0.049 0.227,-0.04C0.237,-0.032 0.256,-0.027 0.285,-0.024L0.285,-0L0.018,-0L0.018,-0.024Z" style="fill-rule:nonzero;"/>
            </g>
            <g transform="matrix(7.35994,0,0,14.2127,392.221,547.571)">
                <path d="M0.016,-0.024C0.034,-0.026 0.048,-0.031 0.056,-0.039C0.065,-0.046 0.069,-0.062 0.069,-0.084L0.069,-0.378C0.069,-0.399 0.066,-0.413 0.059,-0.42C0.052,-0.428 0.038,-0.433 0.016,-0.436L0.016,-0.46L0.206,-0.46L0.206,-0.389C0.222,-0.413 0.242,-0.433 0.266,-0.448C0.291,-0.464 0.318,-0.472 0.348,-0.472C0.391,-0.472 0.424,-0.461 0.448,-0.439C0.472,-0.417 0.483,-0.378 0.483,-0.322L0.483,-0.081C0.483,-0.058 0.487,-0.044 0.495,-0.037C0.503,-0.031 0.515,-0.026 0.533,-0.024L0.533,-0L0.298,-0L0.298,-0.024C0.316,-0.028 0.328,-0.032 0.335,-0.039C0.341,-0.045 0.345,-0.059 0.345,-0.081L0.345,-0.323C0.345,-0.346 0.342,-0.363 0.338,-0.374C0.33,-0.395 0.315,-0.405 0.292,-0.405C0.274,-0.405 0.258,-0.399 0.244,-0.386C0.229,-0.373 0.218,-0.361 0.21,-0.348L0.21,-0.081C0.21,-0.059 0.214,-0.045 0.22,-0.039C0.227,-0.032 0.239,-0.028 0.257,-0.024L0.257,-0L0.016,-0L0.016,-0.024Z" style="fill-rule:nonzero;"/>
            </g>
            <g transform="matrix(7.35994,0,0,14.2127,396.315,547.571)">
                <path d="M0.022,-0.229C0.022,-0.306 0.043,-0.366 0.084,-0.408C0.125,-0.451 0.174,-0.472 0.231,-0.472C0.264,-0.472 0.295,-0.464 0.324,-0.446C0.353,-0.429 0.375,-0.405 0.391,-0.375C0.403,-0.351 0.411,-0.321 0.416,-0.285C0.418,-0.267 0.419,-0.254 0.419,-0.245L0.164,-0.245C0.166,-0.205 0.173,-0.17 0.184,-0.141C0.203,-0.086 0.237,-0.059 0.287,-0.059C0.31,-0.059 0.332,-0.066 0.353,-0.081C0.366,-0.089 0.382,-0.104 0.4,-0.125L0.423,-0.111C0.392,-0.06 0.357,-0.025 0.316,-0.005C0.29,0.008 0.259,0.014 0.225,0.014C0.176,0.014 0.13,-0.005 0.087,-0.044C0.044,-0.083 0.022,-0.145 0.022,-0.229ZM0.296,-0.282C0.295,-0.341 0.291,-0.382 0.282,-0.406C0.274,-0.429 0.257,-0.441 0.231,-0.441C0.205,-0.441 0.188,-0.427 0.178,-0.4C0.168,-0.373 0.163,-0.334 0.162,-0.282L0.296,-0.282Z" style="fill-rule:nonzero;"/>
            </g>
            <g transform="matrix(7.35994,0,0,14.2127,399.581,547.571)">
                <path d="M0.016,0.129C0.016,0.106 0.023,0.089 0.036,0.079C0.049,0.068 0.065,0.063 0.083,0.063C0.099,0.063 0.112,0.067 0.122,0.077C0.133,0.086 0.138,0.097 0.138,0.11L0.135,0.132C0.135,0.137 0.137,0.14 0.14,0.144C0.143,0.148 0.147,0.149 0.152,0.149C0.169,0.149 0.184,0.136 0.198,0.11C0.207,0.094 0.219,0.062 0.236,0.014L0.116,-0.282C0.107,-0.303 0.099,-0.323 0.091,-0.341C0.083,-0.359 0.075,-0.377 0.066,-0.394C0.057,-0.412 0.05,-0.423 0.044,-0.427C0.039,-0.432 0.03,-0.435 0.016,-0.436L0.016,-0.46L0.266,-0.46L0.266,-0.436C0.25,-0.436 0.238,-0.434 0.228,-0.431C0.218,-0.427 0.213,-0.42 0.213,-0.41C0.213,-0.407 0.213,-0.404 0.215,-0.4C0.216,-0.396 0.218,-0.389 0.222,-0.379L0.301,-0.178L0.309,-0.178L0.373,-0.358C0.376,-0.368 0.378,-0.377 0.381,-0.384C0.383,-0.391 0.384,-0.398 0.384,-0.403C0.384,-0.417 0.379,-0.426 0.37,-0.43C0.361,-0.434 0.347,-0.436 0.329,-0.436L0.329,-0.46L0.48,-0.46L0.48,-0.436C0.467,-0.435 0.456,-0.432 0.448,-0.426C0.44,-0.42 0.431,-0.405 0.422,-0.382L0.273,0.017C0.246,0.09 0.222,0.14 0.202,0.167C0.183,0.193 0.152,0.206 0.11,0.206C0.079,0.206 0.056,0.198 0.04,0.182C0.024,0.166 0.016,0.148 0.016,0.129Z" style="fill-rule:nonzero;"/>
            </g>
            <g transform="matrix(7.35994,0,0,14.2127,403.261,547.571)">
                <path d="M0.025,-0.151L0.053,-0.151C0.063,-0.104 0.081,-0.07 0.108,-0.05C0.135,-0.03 0.162,-0.021 0.19,-0.021C0.216,-0.021 0.235,-0.026 0.247,-0.038C0.259,-0.049 0.265,-0.065 0.265,-0.083C0.265,-0.101 0.258,-0.117 0.245,-0.129C0.238,-0.136 0.226,-0.144 0.21,-0.151L0.136,-0.188C0.097,-0.207 0.069,-0.228 0.052,-0.25C0.035,-0.272 0.026,-0.299 0.026,-0.33C0.026,-0.368 0.04,-0.402 0.067,-0.43C0.094,-0.458 0.132,-0.472 0.18,-0.472C0.201,-0.472 0.224,-0.469 0.248,-0.462C0.271,-0.455 0.286,-0.451 0.292,-0.451C0.3,-0.451 0.306,-0.453 0.309,-0.456C0.313,-0.46 0.316,-0.465 0.318,-0.471L0.34,-0.471L0.34,-0.326L0.314,-0.326C0.305,-0.36 0.29,-0.387 0.268,-0.408C0.247,-0.428 0.222,-0.438 0.193,-0.438C0.171,-0.438 0.154,-0.432 0.143,-0.42C0.132,-0.408 0.127,-0.394 0.127,-0.38C0.127,-0.368 0.132,-0.356 0.142,-0.345C0.151,-0.333 0.169,-0.32 0.195,-0.308L0.25,-0.281C0.284,-0.265 0.309,-0.249 0.324,-0.234C0.35,-0.208 0.363,-0.176 0.363,-0.138C0.363,-0.101 0.35,-0.066 0.323,-0.034C0.296,-0.002 0.256,0.014 0.202,0.014C0.189,0.014 0.175,0.013 0.162,0.01C0.148,0.007 0.132,0.002 0.112,-0.004L0.095,-0.01C0.089,-0.013 0.085,-0.014 0.083,-0.014C0.082,-0.014 0.08,-0.015 0.078,-0.015C0.072,-0.015 0.067,-0.012 0.063,-0.008C0.059,-0.004 0.055,0.004 0.049,0.014L0.025,0.014L0.025,-0.151Z" style="fill-rule:nonzero;"/>
            </g>
            <g transform="matrix(7.35994,0,0,14.2127,433.333,547.557)">
                <path d="M0.025,-0.151L0.053,-0.151C0.063,-0.104 0.081,-0.07 0.108,-0.05C0.135,-0.03 0.162,-0.021 0.19,-0.021C0.216,-0.021 0.235,-0.026 0.247,-0.038C0.259,-0.049 0.265,-0.065 0.265,-0.083C0.265,-0.101 0.258,-0.117 0.245,-0.129C0.238,-0.136 0.226,-0.144 0.21,-0.151L0.136,-0.188C0.097,-0.207 0.069,-0.228 0.052,-0.25C0.035,-0.272 0.026,-0.299 0.026,-0.33C0.026,-0.368 0.04,-0.402 0.067,-0.43C0.094,-0.458 0.132,-0.472 0.18,-0.472C0.201,-0.472 0.224,-0.469 0.248,-0.462C0.271,-0.455 0.286,-0.451 0.292,-0.451C0.3,-0.451 0.306,-0.453 0.309,-0.456C0.313,-0.46 0.316,-0.465 0.318,-0.471L0.34,-0.471L0.34,-0.326L0.314,-0.326C0.305,-0.36 0.29,-0.387 0.268,-0.408C0.247,-0.428 0.222,-0.438 0.193,-0.438C0.171,-0.438 0.154,-0.432 0.143,-0.42C0.132,-0.408 0.127,-0.394 0.127,-0.38C0.127,-0.368 0.132,-0.356 0.142,-0.345C0.151,-0.333 0.169,-0.32 0.195,-0.308L0.25,-0.281C0.284,-0.265 0.309,-0.249 0.324,-0.234C0.35,-0.208 0.363,-0.176 0.363,-0.138C0.363,-0.101 0.35,-0.066 0.323,-0.034C0.296,-0.002 0.256,0.014 0.202,0.014C0.189,0.014 0.175,0.013 0.162,0.01C0.148,0.007 0.132,0.002 0.112,-0.004L0.095,-0.01C0.089,-0.013 0.085,-0.014 0.083,-0.014C0.082,-0.014 0.08,-0.015 0.078,-0.015C0.072,-0.015 0.067,-0.012 0.063,-0.008C0.059,-0.004 0.055,0.004 0.049,0.014L0.025,0.014L0.025,-0.151Z" style="fill-rule:nonzero;"/>
            </g>
            <g transform="matrix(7.35994,0,0,14.2127,407.965,547.571)">
                <path d="M0.386,-0.454C0.406,-0.46 0.421,-0.468 0.431,-0.477C0.448,-0.491 0.457,-0.511 0.457,-0.536C0.457,-0.562 0.449,-0.589 0.433,-0.617C0.416,-0.646 0.394,-0.66 0.365,-0.66C0.354,-0.66 0.344,-0.657 0.334,-0.651C0.32,-0.641 0.313,-0.625 0.313,-0.602C0.313,-0.582 0.318,-0.562 0.329,-0.541C0.34,-0.52 0.359,-0.491 0.386,-0.454ZM0.349,-0.063C0.365,-0.063 0.382,-0.066 0.398,-0.074C0.408,-0.079 0.422,-0.088 0.442,-0.102C0.409,-0.146 0.388,-0.177 0.377,-0.192C0.366,-0.208 0.345,-0.24 0.313,-0.288L0.265,-0.36C0.238,-0.344 0.221,-0.331 0.212,-0.321C0.198,-0.305 0.191,-0.285 0.191,-0.26C0.191,-0.22 0.207,-0.176 0.24,-0.131C0.274,-0.085 0.31,-0.063 0.349,-0.063ZM0.248,-0.39C0.228,-0.423 0.215,-0.449 0.207,-0.47C0.199,-0.491 0.195,-0.513 0.195,-0.535C0.195,-0.58 0.212,-0.618 0.246,-0.648C0.279,-0.678 0.328,-0.693 0.393,-0.693C0.447,-0.693 0.488,-0.681 0.516,-0.657C0.544,-0.633 0.558,-0.604 0.558,-0.571C0.558,-0.538 0.544,-0.509 0.517,-0.485C0.49,-0.461 0.453,-0.441 0.406,-0.424L0.557,-0.21C0.585,-0.246 0.603,-0.272 0.612,-0.287C0.626,-0.31 0.633,-0.332 0.633,-0.353C0.633,-0.369 0.629,-0.38 0.621,-0.384C0.613,-0.389 0.595,-0.393 0.567,-0.397L0.567,-0.421L0.773,-0.421L0.773,-0.397C0.746,-0.393 0.727,-0.387 0.718,-0.379C0.709,-0.371 0.691,-0.344 0.665,-0.298C0.66,-0.29 0.649,-0.274 0.632,-0.25C0.623,-0.237 0.606,-0.213 0.58,-0.178C0.605,-0.145 0.626,-0.121 0.643,-0.107C0.66,-0.093 0.679,-0.086 0.698,-0.086C0.714,-0.086 0.727,-0.091 0.738,-0.101C0.744,-0.106 0.75,-0.114 0.757,-0.125L0.776,-0.113C0.762,-0.082 0.746,-0.057 0.729,-0.038C0.697,-0.003 0.659,0.015 0.616,0.015C0.584,0.015 0.555,0.005 0.526,-0.016C0.51,-0.027 0.489,-0.047 0.465,-0.074C0.427,-0.047 0.396,-0.028 0.371,-0.016C0.328,0.004 0.284,0.014 0.239,0.014C0.191,0.014 0.148,-0.001 0.11,-0.033C0.071,-0.064 0.052,-0.105 0.052,-0.157C0.052,-0.217 0.076,-0.269 0.124,-0.313C0.15,-0.337 0.192,-0.363 0.248,-0.39Z" style="fill-rule:nonzero;"/>
            </g>
            <g transform="matrix(7.35994,0,0,14.2127,415.936,547.571)">
                <path d="M0.387,-0.688C0.428,-0.688 0.471,-0.681 0.513,-0.665C0.556,-0.65 0.58,-0.642 0.584,-0.642C0.597,-0.642 0.607,-0.647 0.615,-0.657C0.623,-0.667 0.627,-0.677 0.629,-0.688L0.657,-0.688L0.657,-0.454L0.632,-0.454C0.608,-0.504 0.583,-0.544 0.558,-0.574C0.511,-0.628 0.458,-0.655 0.399,-0.655C0.332,-0.655 0.284,-0.626 0.256,-0.568C0.228,-0.51 0.214,-0.433 0.214,-0.335C0.214,-0.264 0.222,-0.205 0.239,-0.159C0.27,-0.072 0.327,-0.029 0.411,-0.029C0.463,-0.029 0.51,-0.043 0.555,-0.072C0.58,-0.088 0.61,-0.115 0.645,-0.151L0.674,-0.127C0.635,-0.083 0.601,-0.052 0.571,-0.032C0.519,0.003 0.46,0.02 0.396,0.02C0.297,0.02 0.214,-0.009 0.147,-0.068C0.074,-0.133 0.037,-0.22 0.037,-0.33C0.037,-0.438 0.072,-0.526 0.143,-0.594C0.209,-0.657 0.29,-0.688 0.387,-0.688Z" style="fill-rule:nonzero;"/>
            </g>
            <g transform="matrix(7.35994,0,0,14.2127,421.251,547.571)">
                <path d="M0.022,-0.229C0.022,-0.299 0.043,-0.357 0.086,-0.403C0.129,-0.45 0.183,-0.473 0.248,-0.473C0.314,-0.473 0.368,-0.449 0.41,-0.402C0.452,-0.354 0.473,-0.297 0.473,-0.229C0.473,-0.162 0.452,-0.105 0.411,-0.057C0.369,-0.009 0.315,0.015 0.248,0.015C0.182,0.015 0.129,-0.008 0.086,-0.055C0.043,-0.102 0.022,-0.16 0.022,-0.229ZM0.169,-0.229C0.169,-0.159 0.173,-0.11 0.18,-0.082C0.191,-0.039 0.214,-0.017 0.248,-0.017C0.28,-0.017 0.301,-0.034 0.311,-0.067C0.321,-0.1 0.326,-0.154 0.326,-0.229C0.326,-0.304 0.321,-0.358 0.31,-0.391C0.3,-0.424 0.279,-0.441 0.248,-0.441C0.214,-0.441 0.192,-0.419 0.18,-0.376C0.173,-0.347 0.169,-0.298 0.169,-0.229Z" style="fill-rule:nonzero;"/>
            </g>
            <g transform="matrix(7.35994,0,0,14.2127,424.931,547.571)">
                <path d="M0.205,-0.46L0.205,-0.121C0.205,-0.101 0.207,-0.086 0.212,-0.077C0.22,-0.06 0.237,-0.052 0.262,-0.052C0.278,-0.052 0.294,-0.057 0.309,-0.067C0.318,-0.072 0.329,-0.082 0.342,-0.095L0.342,-0.378C0.342,-0.399 0.338,-0.414 0.33,-0.422C0.322,-0.43 0.305,-0.435 0.28,-0.436L0.28,-0.46L0.479,-0.46L0.479,-0.101C0.479,-0.08 0.483,-0.065 0.491,-0.057C0.499,-0.049 0.514,-0.044 0.537,-0.042L0.537,-0.02C0.475,-0.014 0.436,-0.009 0.42,-0.007C0.404,-0.004 0.378,0.003 0.342,0.014L0.342,-0.052C0.319,-0.031 0.299,-0.017 0.283,-0.008C0.256,0.007 0.227,0.014 0.198,0.014C0.166,0.014 0.135,0.004 0.108,-0.017C0.08,-0.037 0.066,-0.074 0.066,-0.126L0.066,-0.378C0.066,-0.4 0.063,-0.413 0.056,-0.42C0.049,-0.426 0.036,-0.432 0.016,-0.436L0.016,-0.46L0.205,-0.46Z" style="fill-rule:nonzero;"/>
            </g>
            <g transform="matrix(7.35994,0,0,14.2127,429.025,547.571)">
                <path d="M0.016,-0.024C0.034,-0.026 0.048,-0.031 0.056,-0.039C0.065,-0.046 0.069,-0.062 0.069,-0.084L0.069,-0.378C0.069,-0.399 0.066,-0.413 0.059,-0.42C0.052,-0.428 0.038,-0.433 0.016,-0.436L0.016,-0.46L0.206,-0.46L0.206,-0.389C0.222,-0.413 0.242,-0.433 0.266,-0.448C0.291,-0.464 0.318,-0.472 0.348,-0.472C0.391,-0.472 0.424,-0.461 0.448,-0.439C0.472,-0.417 0.483,-0.378 0.483,-0.322L0.483,-0.081C0.483,-0.058 0.487,-0.044 0.495,-0.037C0.503,-0.031 0.515,-0.026 0.533,-0.024L0.533,-0L0.298,-0L0.298,-0.024C0.316,-0.028 0.328,-0.032 0.335,-0.039C0.341,-0.045 0.345,-0.059 0.345,-0.081L0.345,-0.323C0.345,-0.346 0.342,-0.363 0.338,-0.374C0.33,-0.395 0.315,-0.405 0.292,-0.405C0.274,-0.405 0.258,-0.399 0.244,-0.386C0.229,-0.373 0.218,-0.361 0.21,-0.348L0.21,-0.081C0.21,-0.059 0.214,-0.045 0.22,-0.039C0.227,-0.032 0.239,-0.028 0.257,-0.024L0.257,-0L0.016,-0L0.016,-0.024Z" style="fill-rule:nonzero;"/>
            </g>
            <g transform="matrix(7.35994,0,0,14.2127,436.385,547.571)">
                <path d="M0.022,-0.229C0.022,-0.306 0.043,-0.366 0.084,-0.408C0.125,-0.451 0.174,-0.472 0.231,-0.472C0.264,-0.472 0.295,-0.464 0.324,-0.446C0.353,-0.429 0.375,-0.405 0.391,-0.375C0.403,-0.351 0.411,-0.321 0.416,-0.285C0.418,-0.267 0.419,-0.254 0.419,-0.245L0.164,-0.245C0.166,-0.205 0.173,-0.17 0.184,-0.141C0.203,-0.086 0.237,-0.059 0.287,-0.059C0.31,-0.059 0.332,-0.066 0.353,-0.081C0.366,-0.089 0.382,-0.104 0.4,-0.125L0.423,-0.111C0.392,-0.06 0.357,-0.025 0.316,-0.005C0.29,0.008 0.259,0.014 0.225,0.014C0.176,0.014 0.13,-0.005 0.087,-0.044C0.044,-0.083 0.022,-0.145 0.022,-0.229ZM0.296,-0.282C0.295,-0.341 0.291,-0.382 0.282,-0.406C0.274,-0.429 0.257,-0.441 0.231,-0.441C0.205,-0.441 0.188,-0.427 0.178,-0.4C0.168,-0.373 0.163,-0.334 0.162,-0.282L0.296,-0.282Z" style="fill-rule:nonzero;"/>
            </g>
            <g transform="matrix(7.35994,0,0,14.2127,439.651,547.571)">
                <path d="M0.016,-0.024C0.034,-0.028 0.046,-0.034 0.053,-0.041C0.061,-0.048 0.064,-0.062 0.064,-0.084L0.064,-0.594C0.064,-0.615 0.061,-0.629 0.054,-0.635C0.047,-0.642 0.035,-0.647 0.016,-0.651L0.016,-0.676L0.206,-0.676L0.206,-0.084C0.206,-0.062 0.209,-0.048 0.216,-0.041C0.223,-0.034 0.236,-0.028 0.254,-0.024L0.254,-0L0.016,-0L0.016,-0.024Z" style="fill-rule:nonzero;"/>
            </g>
            <g transform="matrix(7.35994,0,0,14.2127,441.696,547.571)">
                <path d="M0.022,-0.229C0.022,-0.299 0.043,-0.357 0.086,-0.403C0.129,-0.45 0.183,-0.473 0.248,-0.473C0.314,-0.473 0.368,-0.449 0.41,-0.402C0.452,-0.354 0.473,-0.297 0.473,-0.229C0.473,-0.162 0.452,-0.105 0.411,-0.057C0.369,-0.009 0.315,0.015 0.248,0.015C0.182,0.015 0.129,-0.008 0.086,-0.055C0.043,-0.102 0.022,-0.16 0.022,-0.229ZM0.169,-0.229C0.169,-0.159 0.173,-0.11 0.18,-0.082C0.191,-0.039 0.214,-0.017 0.248,-0.017C0.28,-0.017 0.301,-0.034 0.311,-0.067C0.321,-0.1 0.326,-0.154 0.326,-0.229C0.326,-0.304 0.321,-0.358 0.31,-0.391C0.3,-0.424 0.279,-0.441 0.248,-0.441C0.214,-0.441 0.192,-0.419 0.18,-0.376C0.173,-0.347 0.169,-0.298 0.169,-0.229Z" style="fill-rule:nonzero;"/>
            </g>
            <g transform="matrix(7.35994,0,0,14.2127,445.376,547.571)">
                <path d="M0.018,-0.024C0.037,-0.026 0.051,-0.031 0.058,-0.038C0.066,-0.044 0.07,-0.058 0.07,-0.077L0.071,-0.106L0.071,-0.378C0.071,-0.399 0.068,-0.413 0.061,-0.421C0.053,-0.428 0.039,-0.433 0.018,-0.436L0.018,-0.46L0.208,-0.46L0.208,-0.382C0.229,-0.41 0.25,-0.431 0.271,-0.448C0.292,-0.464 0.316,-0.472 0.343,-0.472C0.364,-0.472 0.382,-0.466 0.399,-0.452C0.415,-0.439 0.423,-0.42 0.423,-0.395C0.423,-0.375 0.418,-0.359 0.406,-0.346C0.394,-0.333 0.379,-0.327 0.361,-0.327C0.34,-0.327 0.321,-0.337 0.306,-0.357C0.29,-0.377 0.28,-0.387 0.273,-0.387C0.26,-0.387 0.247,-0.378 0.233,-0.362C0.22,-0.346 0.213,-0.322 0.213,-0.292L0.213,-0.103C0.213,-0.069 0.218,-0.049 0.227,-0.04C0.237,-0.032 0.256,-0.027 0.285,-0.024L0.285,-0L0.018,-0L0.018,-0.024Z" style="fill-rule:nonzero;"/>
            </g>
            <g transform="matrix(7.35994,0,0,14.2127,448.643,547.571)">
                <path d="M0.025,-0.151L0.053,-0.151C0.063,-0.104 0.081,-0.07 0.108,-0.05C0.135,-0.03 0.162,-0.021 0.19,-0.021C0.216,-0.021 0.235,-0.026 0.247,-0.038C0.259,-0.049 0.265,-0.065 0.265,-0.083C0.265,-0.101 0.258,-0.117 0.245,-0.129C0.238,-0.136 0.226,-0.144 0.21,-0.151L0.136,-0.188C0.097,-0.207 0.069,-0.228 0.052,-0.25C0.035,-0.272 0.026,-0.299 0.026,-0.33C0.026,-0.368 0.04,-0.402 0.067,-0.43C0.094,-0.458 0.132,-0.472 0.18,-0.472C0.201,-0.472 0.224,-0.469 0.248,-0.462C0.271,-0.455 0.286,-0.451 0.292,-0.451C0.3,-0.451 0.306,-0.453 0.309,-0.456C0.313,-0.46 0.316,-0.465 0.318,-0.471L0.34,-0.471L0.34,-0.326L0.314,-0.326C0.305,-0.36 0.29,-0.387 0.268,-0.408C0.247,-0.428 0.222,-0.438 0.193,-0.438C0.171,-0.438 0.154,-0.432 0.143,-0.42C0.132,-0.408 0.127,-0.394 0.127,-0.38C0.127,-0.368 0.132,-0.356 0.142,-0.345C0.151,-0.333 0.169,-0.32 0.195,-0.308L0.25,-0.281C0.284,-0.265 0.309,-0.249 0.324,-0.234C0.35,-0.208 0.363,-0.176 0.363,-0.138C0.363,-0.101 0.35,-0.066 0.323,-0.034C0.296,-0.002 0.256,0.014 0.202,0.014C0.189,0.014 0.175,0.013 0.162,0.01C0.148,0.007 0.132,0.002 0.112,-0.004L0.095,-0.01C0.089,-0.013 0.085,-0.014 0.083,-0.014C0.082,-0.014 0.08,-0.015 0.078,-0.015C0.072,-0.015 0.067,-0.012 0.063,-0.008C0.059,-0.004 0.055,0.004 0.049,0.014L0.025,0.014L0.025,-0.151Z" style="fill-rule:nonzero;"/>
            </g>
            <g transform="matrix(7.35994,0,0,14.2127,453.347,547.571)">
                <path d="M0.393,-0.236L0.297,-0.467L0.289,-0.467L0.199,-0.236L0.393,-0.236ZM0.018,-0.025C0.042,-0.027 0.062,-0.038 0.076,-0.058C0.086,-0.071 0.099,-0.099 0.117,-0.142L0.339,-0.689L0.367,-0.689L0.59,-0.164C0.615,-0.105 0.634,-0.067 0.646,-0.05C0.658,-0.033 0.676,-0.025 0.699,-0.025L0.699,-0L0.375,-0L0.375,-0.025C0.408,-0.027 0.429,-0.029 0.439,-0.034C0.449,-0.038 0.455,-0.049 0.455,-0.066C0.455,-0.074 0.452,-0.086 0.447,-0.102C0.444,-0.111 0.439,-0.122 0.434,-0.136L0.408,-0.196L0.184,-0.196C0.169,-0.157 0.16,-0.131 0.155,-0.119C0.146,-0.093 0.142,-0.074 0.142,-0.063C0.142,-0.048 0.152,-0.038 0.171,-0.031C0.182,-0.028 0.199,-0.026 0.222,-0.025L0.222,-0L0.018,-0L0.018,-0.025Z" style="fill-rule:nonzero;"/>
            </g>
            <g transform="matrix(7.35994,0,0,14.2127,458.662,547.571)">
                <path d="M0.016,-0.417L0.016,-0.444C0.025,-0.452 0.036,-0.462 0.049,-0.473C0.066,-0.489 0.082,-0.506 0.098,-0.522C0.128,-0.556 0.155,-0.591 0.18,-0.629L0.206,-0.629L0.206,-0.46L0.301,-0.46L0.301,-0.417L0.206,-0.417L0.206,-0.116C0.206,-0.102 0.208,-0.09 0.212,-0.081C0.218,-0.066 0.229,-0.059 0.244,-0.059C0.257,-0.059 0.268,-0.063 0.277,-0.073C0.286,-0.082 0.294,-0.095 0.303,-0.111L0.327,-0.099C0.315,-0.072 0.301,-0.049 0.285,-0.032C0.257,-0.002 0.222,0.013 0.18,0.013C0.157,0.013 0.136,0.009 0.119,-0C0.085,-0.017 0.068,-0.048 0.068,-0.092L0.068,-0.417L0.016,-0.417Z" style="fill-rule:nonzero;"/>
            </g>
            <g transform="matrix(7.35994,0,0,14.2127,462.953,547.571)">
                <path d="M0.018,-0.025C0.045,-0.026 0.065,-0.03 0.077,-0.036C0.097,-0.047 0.106,-0.066 0.106,-0.096L0.106,-0.58C0.106,-0.609 0.097,-0.629 0.078,-0.639C0.067,-0.645 0.047,-0.649 0.018,-0.65L0.018,-0.676L0.368,-0.676L0.368,-0.65C0.327,-0.649 0.3,-0.643 0.286,-0.633C0.273,-0.623 0.266,-0.598 0.266,-0.559L0.266,-0.086C0.266,-0.064 0.272,-0.05 0.283,-0.042C0.295,-0.035 0.318,-0.032 0.351,-0.032C0.411,-0.032 0.462,-0.045 0.503,-0.072C0.544,-0.098 0.579,-0.15 0.608,-0.227L0.638,-0.227L0.597,-0L0.018,-0L0.018,-0.025Z" style="fill-rule:nonzero;"/>
            </g>
            <g transform="matrix(7.35994,0,0,14.2127,467.862,547.571)">
                <path d="M0.219,-0.057C0.236,-0.057 0.251,-0.062 0.265,-0.072C0.272,-0.078 0.282,-0.087 0.292,-0.099L0.292,-0.245C0.266,-0.239 0.242,-0.228 0.222,-0.214C0.188,-0.191 0.171,-0.16 0.171,-0.124C0.171,-0.102 0.176,-0.085 0.186,-0.074C0.196,-0.063 0.207,-0.057 0.219,-0.057ZM0.025,-0.093C0.025,-0.138 0.047,-0.174 0.09,-0.2C0.134,-0.227 0.201,-0.253 0.294,-0.28L0.294,-0.353C0.294,-0.382 0.288,-0.404 0.275,-0.418C0.263,-0.432 0.24,-0.439 0.208,-0.439C0.191,-0.439 0.176,-0.436 0.164,-0.429C0.153,-0.423 0.147,-0.414 0.147,-0.404C0.147,-0.4 0.148,-0.397 0.149,-0.395C0.15,-0.392 0.152,-0.389 0.155,-0.386L0.161,-0.379C0.165,-0.374 0.169,-0.368 0.172,-0.361C0.174,-0.354 0.176,-0.347 0.176,-0.34C0.176,-0.321 0.17,-0.306 0.157,-0.296C0.144,-0.286 0.13,-0.281 0.113,-0.281C0.094,-0.281 0.078,-0.286 0.064,-0.298C0.051,-0.309 0.044,-0.326 0.044,-0.347C0.044,-0.386 0.062,-0.416 0.098,-0.438C0.134,-0.461 0.179,-0.472 0.231,-0.472C0.288,-0.472 0.335,-0.461 0.374,-0.439C0.411,-0.417 0.43,-0.377 0.43,-0.317L0.43,-0.075C0.43,-0.068 0.432,-0.062 0.436,-0.057C0.44,-0.052 0.444,-0.049 0.448,-0.049C0.452,-0.049 0.456,-0.05 0.459,-0.052C0.462,-0.053 0.467,-0.057 0.473,-0.063L0.488,-0.042C0.469,-0.02 0.447,-0.004 0.423,0.005C0.408,0.011 0.393,0.014 0.376,0.014C0.346,0.014 0.325,0.006 0.311,-0.012C0.303,-0.021 0.298,-0.036 0.294,-0.055C0.266,-0.028 0.235,-0.008 0.2,0.003C0.179,0.011 0.158,0.014 0.138,0.014C0.11,0.014 0.085,0.005 0.061,-0.012C0.037,-0.029 0.025,-0.056 0.025,-0.093Z" style="fill-rule:nonzero;"/>
            </g>
            <g transform="matrix(7.35994,0,0,14.2127,471.542,547.571)">
                <path d="M0.238,-0.46L0.238,-0.436C0.227,-0.435 0.218,-0.433 0.21,-0.429C0.203,-0.425 0.2,-0.418 0.2,-0.406C0.2,-0.402 0.2,-0.399 0.201,-0.395C0.202,-0.391 0.204,-0.386 0.207,-0.378L0.281,-0.183L0.287,-0.183L0.352,-0.347C0.352,-0.349 0.349,-0.359 0.344,-0.377C0.339,-0.394 0.334,-0.406 0.331,-0.413C0.325,-0.422 0.32,-0.428 0.316,-0.43C0.311,-0.432 0.301,-0.434 0.287,-0.436L0.287,-0.46L0.521,-0.46L0.521,-0.436C0.506,-0.435 0.495,-0.434 0.486,-0.431C0.477,-0.428 0.473,-0.422 0.473,-0.414C0.473,-0.409 0.474,-0.403 0.475,-0.397C0.476,-0.39 0.478,-0.382 0.481,-0.371L0.532,-0.192L0.538,-0.192L0.61,-0.383C0.611,-0.386 0.612,-0.389 0.612,-0.392C0.613,-0.395 0.613,-0.398 0.613,-0.4C0.613,-0.414 0.609,-0.424 0.601,-0.428C0.593,-0.432 0.58,-0.435 0.564,-0.436L0.564,-0.46L0.7,-0.46L0.7,-0.436C0.688,-0.434 0.679,-0.43 0.672,-0.424C0.665,-0.418 0.658,-0.405 0.65,-0.386L0.495,0.014L0.472,0.014L0.371,-0.289L0.367,-0.289L0.245,0.014L0.221,0.014L0.073,-0.36C0.06,-0.391 0.051,-0.411 0.045,-0.419C0.04,-0.428 0.03,-0.433 0.016,-0.436L0.016,-0.46L0.238,-0.46Z" style="fill-rule:nonzero;"/>
            </g>
        </g>
        <g transform="matrix(1.36614,0,0,1.06915,-146.457,-124.223)">
            <rect x="300.037" y="509.495" width="199.925" height="3.941"/>
        </g>
        <g transform="matrix(0.605363,0,0,0.456216,157.852,41.0127)">
            <rect x="300.037" y="509.495" width="199.925" height="3.941"/>
        </g>
        <g transform="matrix(1.28039,0,0,1.28039,91.3151,-421.448)">
            <g transform="matrix(48,0,0,48,209.435,532.833)">
                <path d="M0.597,-0.614L0.593,-0.617L0.56,-0.559C0.553,-0.548 0.548,-0.536 0.543,-0.522C0.539,-0.509 0.534,-0.495 0.527,-0.48L0.526,-0.482L0.519,-0.512L0.531,-0.546C0.533,-0.55 0.535,-0.555 0.537,-0.561C0.538,-0.563 0.54,-0.568 0.544,-0.576L0.571,-0.625L0.597,-0.625C0.595,-0.621 0.594,-0.618 0.595,-0.616L0.597,-0.614ZM0.557,-0.663L0.553,-0.655L0.52,-0.597C0.516,-0.59 0.508,-0.57 0.495,-0.536C0.493,-0.53 0.491,-0.524 0.488,-0.519L0.487,-0.521L0.486,-0.526C0.482,-0.546 0.476,-0.563 0.466,-0.579C0.449,-0.587 0.428,-0.591 0.403,-0.591L0.351,-0.591L0.351,-0.055L0.365,-0.041L0.156,-0.041L0.22,-0.095L0.22,-0.591L0.209,-0.591C0.167,-0.591 0.136,-0.582 0.118,-0.564C0.097,-0.543 0.086,-0.513 0.086,-0.474L0.079,-0.49L0.072,-0.509C0.076,-0.541 0.086,-0.565 0.101,-0.579C0.119,-0.597 0.149,-0.605 0.19,-0.605L0.207,-0.605C0.213,-0.604 0.217,-0.604 0.22,-0.604L0.22,-0.626L0.191,-0.629C0.185,-0.63 0.178,-0.63 0.17,-0.63C0.128,-0.63 0.097,-0.621 0.078,-0.603C0.057,-0.582 0.046,-0.552 0.046,-0.512C0.044,-0.52 0.041,-0.528 0.037,-0.538C0.02,-0.586 0.001,-0.627 -0.02,-0.662L0.557,-0.663ZM0.404,-0.002L0.196,-0.002L0.213,-0.017L0.389,-0.017L0.404,-0.002ZM0.458,-0.592C0.457,-0.595 0.455,-0.597 0.455,-0.597C0.453,-0.6 0.449,-0.603 0.444,-0.607C0.425,-0.622 0.398,-0.63 0.363,-0.63L0.311,-0.63L0.311,-0.091L0.336,-0.068L0.336,-0.605L0.383,-0.605C0.413,-0.605 0.437,-0.6 0.455,-0.588L0.458,-0.592Z" style="fill-rule:nonzero;"/>
            </g>
            <g transform="matrix(48,0,0,48,239.693,532.833)">
                <path d="M0.708,-0.625L0.645,-0.562L0.645,-0.057L0.662,-0.041L0.452,-0.041L0.515,-0.094L0.515,-0.394L0.51,-0.395L0.37,-0.002L0.34,-0.002L0.335,-0.017L0.354,-0.017L0.515,-0.467L0.515,-0.542L0.51,-0.543L0.331,-0.041L0.301,-0.041L0.164,-0.438L0.159,-0.438L0.159,-0.161C0.159,-0.113 0.163,-0.077 0.172,-0.053C0.182,-0.048 0.192,-0.044 0.203,-0.041L-0.004,-0.042C0.032,-0.06 0.056,-0.081 0.069,-0.105C0.08,-0.126 0.085,-0.158 0.085,-0.201L0.085,-0.607L0.025,-0.663L0.269,-0.663L0.202,-0.604L0.342,-0.185L0.347,-0.201L0.351,-0.211L0.228,-0.583L0.274,-0.625L0.308,-0.625L0.242,-0.565L0.356,-0.222C0.383,-0.293 0.406,-0.357 0.425,-0.414C0.431,-0.43 0.438,-0.453 0.449,-0.485C0.455,-0.503 0.469,-0.542 0.491,-0.603L0.435,-0.663L0.668,-0.663L0.605,-0.6L0.605,-0.094L0.63,-0.071L0.63,-0.578L0.677,-0.625L0.708,-0.625ZM0.701,-0.002L0.491,-0.002L0.508,-0.017L0.686,-0.017L0.701,-0.002ZM0.242,-0.002L0.035,-0.003C0.045,-0.009 0.053,-0.013 0.058,-0.017L0.208,-0.017C0.218,-0.011 0.229,-0.006 0.242,-0.002ZM0.165,-0.057L0.161,-0.067L0.16,-0.07C0.149,-0.091 0.144,-0.128 0.144,-0.18L0.144,-0.495L0.124,-0.552L0.119,-0.551L0.119,-0.2C0.119,-0.132 0.128,-0.09 0.146,-0.072C0.15,-0.068 0.157,-0.063 0.165,-0.057Z" style="fill-rule:nonzero;"/>
            </g>
        </g>
        <g transform="matrix(0.75649,0,0,0.905276,79.9049,25.8089)">
            <rect x="250.025" y="454.948" width="62.917" height="2.118"/>
        </g>
        <g transform="matrix(0.75649,0,0,0.905276,294.217,25.5914)">
            <rect x="250.025" y="454.948" width="62.917" height="2.118"/>
        </g>
    </g>
</svg>
